<svg xmlns="http://www.w3.org/2000/svg" viewBox="0 0 409.7 155.25"><defs><style>.cls-1{fill:#d71921;}.cls-2{fill:#231f20;}.cls-3{fill:#fff;}</style></defs><g id="Layer_2" data-name="Layer 2"><g id="Layer_1-2" data-name="Layer 1"><path class="cls-1" d="M405,65.88,341.19,27.94l-34,1.1L327.59,24l-24.74-.77L288,17a250.31,250.31,0,0,1,32.34-2.51c11.14-.16,17.24.66,20.29,1.32-7-1.94-26.43-6.93-40.55-6.33C289.05,10,272.57,7,272.57,7s22.79-2.56,38.37-2.62S280.78,0,271.16.14C259.11.3,246-.33,240,.25,221.15,2.11,133.06,7.78,96.75,18.34c-13.4,3.91-49.23,13-49.23,13S26,62.4,24.71,70.85C23.05,82,14.37,98.89,41.49,99.6c15.63.41,21.14,11.67,15.17,21.57-9.06,15,34.35,25.7,42,27.24,9,1.83,36.57-5.61,69.88-15.93l.61-5.15h5.69a5.57,5.57,0,0,1,4.28,1.84C219.89,116.31,266.9,100.34,298.86,92,338.7,81.49,404.4,84.1,404.4,84.1L312.56,73.87Z"/><path class="cls-1" d="M339.44,15.92c1.66.46,2.61.75,2.61.75A12.56,12.56,0,0,0,339.44,15.92Z"/><path class="cls-2" d="M39.54,28.78c0,.22.11.22.21.34h.11l-.11.22s1.58,1.89.32,1.78c-.53.66-.32.55-.84.89-.1.33.42.55,0,.77a.68.68,0,0,0-.74.23c.53.66,1.68.1,2,1a.78.78,0,0,0-.84.23l-.11,1c-.31,0-.73-.23-.94.22-.11.23.94.33,0,.56-.11.1.11.21.21.33-.1,0-.1.1-.1.22-.42-.12-1-.22-1.26.23-.42,1.32,1.26.66.73,2-.31.22-.83.56-.52,1.11-.84-.11-.52.78-1.15,1.11a1.05,1.05,0,0,0,.74,1h.51c-2.3,2.23-5.76,1-8.59,1.45-3.44.44-6.49.55-9.73.66l-.31.12a55.64,55.64,0,0,0,.21,6.1s0-.11-.21.66c.1.46-.11,1,.41,1.34,2.42.67,5,.11,7.54.78,2.62-.11,5.13,1,7.44,2.22l-.32.44c.84.68,1.26,1,.22.89a8.53,8.53,0,0,0,.1,2.79c-.42-.12-1.05-.12-1.36-.23l.2.44c-.3,0-.52-.33-.72,0,.31.56,1.35.33,1.56,1.22-.21,0-.42-.44-.52-.11l.42.78c-.32.11-.52,0-.74.33a3.52,3.52,0,0,0,.63.56c-.41,0-.73.11-1,.11s-.11.22,0,.34h.11V63H33v-.11a.37.37,0,0,1-.11.32c-.1.33.22.33.32.45l.62.89c-.62-.12-.52.44-.94.88.52.57-.94,0-1.46,1.23a.54.54,0,0,1,.2.33c-.2.11-.51.11-.72.34.52.11.52,1.11.31,1.55-.1.22-.21.89-.31,1.11-.95.66-2.2.23-3.26.66a40.75,40.75,0,0,1-7.42-.1,31.22,31.22,0,0,0-.53,6.55l1.67,19a4.58,4.58,0,0,1-.09,2.66c.41,3.12-1.16,6.23.09,9.34l-.09.22c.1-.33-.21-.22-.43-.34s-.2.12-.31.22v.12a1.6,1.6,0,0,1-1.57-1.23c-.62.11-.31,1.11-.53,1.33a1.51,1.51,0,0,0-1-1.22,1.65,1.65,0,0,0-.22.67l.05-.25-.05.25v-.11a1.66,1.66,0,0,0-.62-.89c-.42.22-.21,1-.42,1.45,0-.12-.1,0-.21,0a.34.34,0,0,0-.1.45c-.52.21-.84-.57-1-.9,0-.11-.21-.11-.21,0-.31.23-.1.55-.21.78-.31-.78-.73-1.45-1.57-1.56-.63-.11-.1,1.33-.84,1.11-.31-1-1-1-1.46-2,0-.12-.11-.23-.31-.45-.11,0-.25-.19-.25-.07-.1-.12-.18.18-.18.07-.94-.11-.18-.59-.4-.16-.3-.55.3.05-.64-.06-1.26-.22-2.62.67-3.35-.89l-.31.11c-1.58-2.33-1.68-5.44-2-8.33C3,91,.8,69,.8,64.66.7,59.78.49,44.45,2.06,36.79c.11-.57.74-1,.42-1.56-.1-.67,1.15-.78.32-1.34-.11-.33.1-.88.1-1.22.31-.11.73-.22.83-.55-.1-.68-.62-1.12-.52-1.78.32-.12.74,0,.94-.45-.1-.55-.3-.89.11-1.22.31-.54.53-1.11.84-1.56a1.35,1.35,0,0,0-.1-.88c.2-.46,1.15-.46.93-1.11,2.52-.45,4.82.22,7.22-.22,2.84-.57,4.93-.23,7.55-.78,4.71-1.12,9.32-.44,14.13-.79v-.11a12.77,12.77,0,0,1,6,1.68c-.21-.12-.31.11-.53.22l.53.44a1.81,1.81,0,0,0-.63.89s.42.11.1.11c.32.33-.31.45-.62,1.33.21.56.73.45,1.26.78-.42-.22-.95,0-1.37.11"/><path class="cls-3" d="M14.26,110.47l-.62-1.55a2.3,2.3,0,0,0-.59-.93c-.16.77-.67,1.12-1.35.91l-.37-.11-.12-.36a1.42,1.42,0,0,0-.52-.71l-.08-.08v0l-.14-.17a2.41,2.41,0,0,1-.42-.5l-.41-.47-.31.62-.15-.27-.07.1-.31-.71H8.58a3,3,0,0,0-1,0c-.25,0-.5,0-.74,0A2.17,2.17,0,0,1,5,105.53l-.29.1-.32-.47c-1.46-2.16-1.74-4.87-2-7.49l-.12-1.16c0-2.93-.61-10.32-1.19-17.46-.52-6.34-1-12.32-1-14.39-.15-7.4-.19-20.89,1.27-28a2.75,2.75,0,0,1,.35-.81,1.19,1.19,0,0,0,.15-.3l-.08-.19a1.25,1.25,0,0,1,.4-1.11l-.06-.11a2.27,2.27,0,0,1,0-1.13,2.3,2.3,0,0,0,0-.32v-.52l.6-.21.13-.05a2,2,0,0,0-.1-.21,2.32,2.32,0,0,1-.31-1.45l.06-.43L3,29.65a2,2,0,0,1,.37-.09,1.36,1.36,0,0,1,.35-1.35c.1-.17.18-.34.26-.51a8.17,8.17,0,0,1,.47-.87,1,1,0,0,0-.07-.27l-.12-.37.11-.25a1.63,1.63,0,0,1,.8-.75l.06,0L5,24.57l.8-.17A12.18,12.18,0,0,1,8,24.23c.55,0,1.1,0,1.64.05s1,0,1.54,0A10,10,0,0,0,13,24.18a24.46,24.46,0,0,1,3.95-.4,22.31,22.31,0,0,0,3.58-.37,33.22,33.22,0,0,1,7.77-.71H31c.91,0,2,0,3.06-.06v-.2l.77.05a13.59,13.59,0,0,1,6.32,1.78l-.26.44.94.78-.67.69-.11.11a.78.78,0,0,1,0,.33s0,.07,0,.13a1.38,1.38,0,0,1-.37.77c-.06.07-.12.13-.17.2h0a3.13,3.13,0,0,1,.73.32l-.69,1.19c.62.84.81,1.52.58,2a1,1,0,0,1-.75.55,1.42,1.42,0,0,1-.11.16,2.1,2.1,0,0,1-.25.31.89.89,0,0,1,0,.49,1.51,1.51,0,0,1,1.08,1l.51,1.44-1.36-.48L40.19,36h-.48a.83.83,0,0,1-.06.21l.82.9H39.41v.36l-.89-.17-.17,0A1.32,1.32,0,0,1,38.86,39l-.08.21-.18.13a1.71,1.71,0,0,0-.27.2l.7,1.21-1.38-.17v0a2.15,2.15,0,0,1-.3.58.1.1,0,0,0,0,0h2.18l-1.3,1.26a6.65,6.65,0,0,1-4.9,1.59c-.43,0-.87,0-1.3,0l-1.25,0a9.55,9.55,0,0,0-1.53.1c-3.35.43-6.31.55-9.41.65,0,.61,0,1.19,0,1.75a22.8,22.8,0,0,0,.16,3.58l0,.18-.62,0,.55.26a4.2,4.2,0,0,0-.13.41,2.36,2.36,0,0,1,0,.37c0,.08,0,.2,0,.27a16,16,0,0,0,3.38.31,17.18,17.18,0,0,1,3.87.39c2.78-.09,5.46,1.12,7.7,2.3l.74.39-.41.57c.46.41.69.74.53,1.2a.84.84,0,0,1-.62.54,6.17,6.17,0,0,0,.06,1.72L36,60.64l-1.3-.37a1.75,1.75,0,0,1,.17.44l.21.9H35l.18.35-.38.13,1.52,1.08H33.79v.11l1.63,2.32-1.63-.31c0,.06-.07.14-.12.22a.73.73,0,0,1,0,.34,1,1,0,0,1-.86.62,1.32,1.32,0,0,0-.52.19,1.13,1.13,0,0,1,.05.32v.43l-.35.2a2.48,2.48,0,0,1-.13,1.57,3.26,3.26,0,0,0-.11.43,4.23,4.23,0,0,1-.2.67l-.08.19-.17.11a3.81,3.81,0,0,1-2.16.55,3.61,3.61,0,0,0-1.23.19l-.21,0a40,40,0,0,1-6.91,0,33.58,33.58,0,0,0-.38,5.76l1.7,19.1A5.19,5.19,0,0,1,22,98.86a16.43,16.43,0,0,1-.18,3.85,9.7,9.7,0,0,0,.21,5.11l.12.29-.23.5-.67-.25v.8l-.83-.11a2.78,2.78,0,0,1-1.27-.44,1,1,0,0,1-.2.32l-1,1-.25-1.4a.8.8,0,0,0-.47-.63v0h-.29a2.13,2.13,0,0,1-.17.76l-.26-.06.28.57-.71.3a1.22,1.22,0,0,1-1.22-.19Zm1.15-2.89.06.11v-.06a1.55,1.55,0,0,1,.7-1.41l.38-.19.35.24a1.33,1.33,0,0,1,.19.14l.4.08a1.85,1.85,0,0,1,.61.26,1.13,1.13,0,0,1,.68-.38l.61-.12.21.6c.14.4.26.57.52.66a1.15,1.15,0,0,1,.2-.15,12.71,12.71,0,0,1,0-4.84,14.28,14.28,0,0,0,.16-3.67l0-.21.09-.19a3.67,3.67,0,0,0,.08-2l0-.22-1.68-19a31.86,31.86,0,0,1,.55-6.77l.14-.63.64.06a39.88,39.88,0,0,0,7.18.12A5,5,0,0,1,29,69.69a3.34,3.34,0,0,0,1.21-.19,2.25,2.25,0,0,1,.05-.22,3.94,3.94,0,0,1,.21-.71,1.16,1.16,0,0,0,0-.56l-1.12-.22.88-1a1.5,1.5,0,0,1,.33-.26l.06-.19a2.16,2.16,0,0,1,1.44-1.25l.16-.2a1.31,1.31,0,0,0,.18-.29,2.52,2.52,0,0,1,.21-.37l-.05-.07A1,1,0,0,1,32.14,63h0a.72.72,0,0,1,0-.42.86.86,0,0,1,.35-.56l0,0,.32-.49a1.64,1.64,0,0,1,.3-.33l-.16-.3,0-.12A1.71,1.71,0,0,1,32,60l-.21-.37.22-.37a1.22,1.22,0,0,1,.25-.29l-.47-1.06,1.62.6.21,0a15.32,15.32,0,0,1,.07-2l0-.26-.51-.41.23-.33a13,13,0,0,0-6.33-1.75H27l-.1,0a15,15,0,0,0-3.64-.37A16.25,16.25,0,0,1,19.35,53l-.2-.09a1.65,1.65,0,0,1-.71-1.51c0-.11,0-.22,0-.28l0-.18,0-.18c.06-.21.12-.4.17-.56a24.3,24.3,0,0,1-.16-3.68c0-.73,0-1.48,0-2.3l0-.53,1.16-.35c3.18-.11,6.18-.22,9.55-.66a10.9,10.9,0,0,1,1.74-.11q.64,0,1.29,0a9,9,0,0,0,4.12-.46A1.82,1.82,0,0,1,35.78,41v-.44l.39-.21s.08-.13.11-.23a1.56,1.56,0,0,1,.57-.78,1.67,1.67,0,0,1,.62-.94,1.4,1.4,0,0,1-.72-1.83l.1-.2a1.45,1.45,0,0,1,1-.62l0-.06a.8.8,0,0,1,0-.56,1.16,1.16,0,0,1,1-.68l0-.39a1.75,1.75,0,0,1-1-.6L37.53,33l.43-.46a1.62,1.62,0,0,1,.53-.38,1,1,0,0,1,0-.34l.07-.25.23-.15.24-.16.06-.09c.07-.1.17-.24.36-.48l.15-.2a6,6,0,0,0-.46-.65l-.29-.35.06-.12a1,1,0,0,1-.15-.56v-.56l.17,0v0l-.1-.25.09-.25a3.25,3.25,0,0,1,.44-.82v-.11l-.87-.89h1.09l.12-.2L39,25l.2-.11A12.87,12.87,0,0,0,35.56,24h0l-.68,0c-1.38.1-2.72.11-3.84.11H28.32a32.38,32.38,0,0,0-7.45.67,22.58,22.58,0,0,1-3.83.4,24.82,24.82,0,0,0-3.74.38,11.45,11.45,0,0,1-2.12.17c-.53,0-1.07,0-1.61,0a19.45,19.45,0,0,0-3,0,1.7,1.7,0,0,1-.77.71,1.72,1.72,0,0,1,0,.84l-.11.23a5.45,5.45,0,0,0-.45.81c-.11.22-.23.46-.36.69l-.14.18a1.46,1.46,0,0,0,0,.2c0,.1,0,.21.07.33l0,.23-.09.21a1.27,1.27,0,0,1-.77.71l.06.14a3.07,3.07,0,0,1,.34,1l0,.17-.05.17a1.46,1.46,0,0,1-.86.86l0,.06c0,.08,0,.18,0,.27a1.07,1.07,0,0,1,.3.65,1.18,1.18,0,0,1-.49,1l-.07,0A1.76,1.76,0,0,1,3,36.57a1.5,1.5,0,0,0-.18.36c-1.48,7.25-1.36,21.8-1.24,27.71,0,2,.49,8,1,14.29.59,7.17,1.2,14.59,1.2,17.5,0,.31.07.7.11,1.09.23,2.24.46,4.55,1.47,6.36l.38-.13.28.59a.75.75,0,0,0,.82.53,4.28,4.28,0,0,0,.6-.05,5.82,5.82,0,0,1,1.32,0l.12-.18h.08l.45-.69.39.89.1.09h.32l.06.06.08,0h.13l.21.23a1.66,1.66,0,0,1,.49.74,2.19,2.19,0,0,0,.53.64,1.57,1.57,0,0,1,.19.18.9.9,0,0,1,.82-.47l.18,0a2.27,2.27,0,0,1,1.41.77A.88.88,0,0,1,15.41,107.58Z"/><path class="cls-2" d="M85.2,94.45l-.37-.68c0-1.16-.91-2.21-1.27-3.37-.64-.88-.74-1.84-1.37-2.8.19-.2-.11-.14.08-.14A2.13,2.13,0,0,1,81.19,86a.14.14,0,0,1,.19,0l-.46-.86c.18,0-.12-.31.06-.12h0c.19.1,0,0,.2.06-.19-.18.38.15.2,0s-.09.2,0,0c-.83-.86-3.37-4.25-4.1-5.12-1.46-1.35-7.1-6.37-8.65-7.53V72c.18-.1.28-.28.45-.28,14.39-10.92,14.39-24.35,14.3-24.63a36.87,36.87,0,0,0-1-5.13c.09-.48-1.46-7.15-7-9.37-4-1.64-8.64-1.73-12.83-1.35-1.55.77-3.28.87-4.92,1.45A2.22,2.22,0,0,1,56,33.5c-3.09,1.15-8.64,5-8.64,5-1,.29-1.28,1.45-2.28,1.74-.27.1-.18.49,0,.59a1,1,0,0,1-.92.77l.19.19c-.36.19-.54.49-.91.49l.1.08c0,.11-.19.21-.19.29a1,1,0,0,0,.36.49c0,.58-.64.2-.82.29l.18.2-.63.48c-.27.87,1,.87,1.27,1.73.73.68,1.37,1.46,2.19,2.23.18.77-.18,1.83.09,2.61,0,.38-.45.67-.09,1-.1,2.71.45,5.22.18,8,.18.19.45.68.27,1-.45.49,0,1.26.09,1.94-.82.48.37,1.06-.27,1.54-.27,8-.27,16.71.18,24.73l.46,8.89c.63,1.05.18,2.12,1.19,2.9.36-.1,1-.88,1.63-.78.09-.19,0-.87.55-1,0-.1-.09-.28,0-.38l.36-.09c.1-.2-.18-.4-.09-.59.46-.09.46.68.91.88.63.38-.08,1.73.63,1.53-.08-.09,0-.28.19-.28.27-.2.54,0,.73,0,0-.1.19-.1.27-.2.28.59.55.1,1,0-.09-.09-.18-.29-.09-.38.28,0,.37.48.55.68-.09-.1-.09-.3.09-.49.37.49.73.29,1.09.87.09-.2-.09-.29-.09-.48.46-.29.55.28.82.48.36-.2.09-.58.45-.77.19.19.19.48.55.57.36-.57.72-.09,1.19-.38-.09-.58.9-.48.72-1.25a32.37,32.37,0,0,0,.46-11.79c.09-.39.37-1.15-.19-1.45.28-.38.1-1.15.1-1.74.46.19.81.39,1,.48,3,2.62,9.19,8.6,12.2,11-1.18-2.12-2.36-2.32-4-4.25l-1.27-1.06L67,89.14c-.82-.58-2.91-3.1-4.91-5,4.64,3.58,16.56,14,17.93,16.13l.54.88-.54-.88.64.4V100c.36-.68,1.09.39,1.27.39l-1-1.56.55.4a1.37,1.37,0,0,1-.46-1l.28-.1-.37-.58a.78.78,0,0,1,.18-.77A16.21,16.21,0,0,0,82.74,98c0-.09-.55-.67-.09-.86a.34.34,0,0,1,.27.09l.18.2v-.1L83,97.16l-.1.09a.49.49,0,0,1,.18-.68c-.28-.48-.63-1-.91-1.44.46-.38.91.77,1,.77s.1-.19.19-.19.18.19.36.29c-.18-.48-.82-1-.64-1.65.46,0,.37.88.82.59-.08-.4-.73-.59-.45-1,.18.09.55.48.55.38l-.18-.77c.63-.19.9.77,1.36.87M69.82,45.09c1.36,4-1.37,6.85-3.28,9.76a1.54,1.54,0,0,1-.73,1.25c-1.83,2.23-3.56,3.87-5.2,6-.81,0-.72,1-1.36,1.25-.82-.67-1.46-12-2.28-15.07,1.37-1.15,11.66-3.87,12.85-3.19"/><path class="cls-3" d="M55.88,102l-.71-1.14c-.08-.12-.1-.13-.26-.2a3.28,3.28,0,0,1-.36-.19l-.25,0a.75.75,0,0,0-.18.09,1.43,1.43,0,0,1-.66.2,1,1,0,0,1-.38-.07l-.92.25a1,1,0,0,1-1-.23,1.38,1.38,0,0,1-.28-1.08c0-.1,0-.26,0-.35h0v.21l-.49.09a.89.89,0,0,0,0,.15,1.32,1.32,0,0,1-.12.44l-.23.48-.53-.08a2,2,0,0,0-.62.35,2.05,2.05,0,0,1-.71.41l-.35.09-.29-.22a2.89,2.89,0,0,1-1.05-2,2.79,2.79,0,0,0-.31-1l-.1-.15-.47-9.07c-.41-7.41-.48-16-.18-24.79l0-.35.12-.09a1.27,1.27,0,0,1,.06-1.34s0-.1,0-.15a2.19,2.19,0,0,1,0-1.82.5.5,0,0,0-.11-.17l-.22-.24,0-.33a24.86,24.86,0,0,0-.06-4.4c-.07-1.06-.15-2.16-.13-3.29a1.17,1.17,0,0,1,0-1.14l0-.06a5,5,0,0,1-.05-1.49,7.5,7.5,0,0,0,0-.79c-.35-.34-.67-.67-1-1s-.67-.71-1-1L43,46.27,43,46.08c0-.13-.19-.24-.44-.41a1.5,1.5,0,0,1-.83-1.76l.07-.22.2-.15-.28-.32.89-.45v-.1a.49.49,0,0,1,0-.12l-1.09-1h1.55l-.66-.68h1.73a.11.11,0,0,0,.07,0,1.18,1.18,0,0,1-.05-.42,1,1,0,0,1,.66-.87,1.77,1.77,0,0,0,.82-.65A3.29,3.29,0,0,1,47,37.86c.76-.52,5.76-3.94,8.71-5l.23,0c.44-.08.89-.16,1.06-.43l.13-.21.24-.09a19.79,19.79,0,0,1,2.16-.58,11.62,11.62,0,0,0,2.68-.83l.12-.06h.13c5.35-.5,9.7,0,13.18,1.4,5.5,2.2,7.33,8.38,7.46,9.9a35.9,35.9,0,0,1,1,5.19h0c0,1.49-.3,14.42-14.47,25.22,2.08,1.69,6.91,6,8.16,7.16.34.39.87,1.07,1.47,1.84,1,1.23,2.14,2.74,2.64,3.28l.06.25.06.45,0,.65v.26a1.21,1.21,0,0,0,.62.68l.2.47.48.88c.08.18.15.36.21.53A5.4,5.4,0,0,0,84.15,90l.1.2a7.64,7.64,0,0,0,.53,1.19,5.78,5.78,0,0,1,.78,2.22l1,1.93L85,95.16a1.24,1.24,0,0,1-.29-.1v.22l-.42.26a.88.88,0,0,1,.09.2l.7,1.83-1.18-.64-.18.11.07.16v2l-.36-.37v.36l-1.07-.56-.19-.11-.34.12-.08.12,1.46,2.28H81.92a.8.8,0,0,1-.54-.21v1.07l-1.08-.66-.36.22-.55-.86a54,54,0,0,0-5.85-5.79l-1,.85c-1.81-1.47-4.7-4.14-7.48-6.72-1.69-1.56-3.3-3-4.48-4.09a1.36,1.36,0,0,1,0,.29,2.16,2.16,0,0,1,.09,1.66,33.56,33.56,0,0,1-.47,11.77,1.37,1.37,0,0,1-.71,1.34l0,.27-.41.26a1.57,1.57,0,0,1-1,.2l-.24.38-.55-.11-.19-.07a1.37,1.37,0,0,1-.26.2l-.41.22-.21-.15ZM47.5,97.53a4.55,4.55,0,0,1,.41,1.39,3.18,3.18,0,0,0,.19.77A3.3,3.3,0,0,1,49,99.2a1.45,1.45,0,0,1,.4-.72.86.86,0,0,1,.23-.47l.05-.06a1,1,0,0,1,.09-.42l.15-.33.59-.1a1.22,1.22,0,0,1,1,.77,1.49,1.49,0,0,0,.12.2,1.38,1.38,0,0,1,.66,1.08,1.56,1.56,0,0,1,.38,0l.65-.68.18.38.22-.22h.3a1.08,1.08,0,0,1,.42.09l.28-.29.52.68a.33.33,0,0,0,.17.13,1.07,1.07,0,0,1,.89,0,1.46,1.46,0,0,1,.3-.22l.47-.24.37.37a1.42,1.42,0,0,1,.12.13,1.31,1.31,0,0,1,.53-.06,1.76,1.76,0,0,1,.52-.49l.05,0v-.06l0-.17c.9-4.78,1-8.44.45-11.51l0-.15.08-.31a2,2,0,0,0,.09-.55l-.75-.39.55-.61a3,3,0,0,0,0-.73c0-.21,0-.41,0-.59v-1.1l1,.43a9.51,9.51,0,0,1,.88.42l.32.18.69.61.55-.64c4.32,3.34,15.13,12.73,17.7,15.79l.1-.1,0,0,.17-.16a2.17,2.17,0,0,1-.14-.49l-.18-.78.06,0a1.52,1.52,0,0,1,.36-1.47l.43-.46.52.37a7.34,7.34,0,0,1,.59.46l.09-.07,0,0-.17-.26c-.17-.26-.34-.52-.49-.78l-.3-.53.46-.39a1,1,0,0,1,.64-.25.83.83,0,0,1,0-.15l.14-.55h.28l.06-.08.15-.21L83,93.09l.65-.21.25,0q-.16-.39-.39-.81a8.88,8.88,0,0,1-.58-1.29,7.06,7.06,0,0,1-.73-1.49,6.85,6.85,0,0,0-.48-1.07l0-.14-.2-.25a3,3,0,0,1-.94-1.49l-.16-.45.07-.06-.12-.24-.17-.2,0-.16-.39-.73h.19c-.55-.68-1.2-1.51-1.8-2.28s-1.1-1.42-1.37-1.74c-1.37-1.26-7-6.28-8.53-7.42l-.29-.22V71.61l.38-.21a1.34,1.34,0,0,1,.48-.32c13.84-10.57,13.91-23.2,13.9-23.83v0a34.1,34.1,0,0,0-1-5l0-.16,0-.16c0-.53-1.55-6.54-6.57-8.55C71.86,32,67.78,31.54,62.73,32a13.6,13.6,0,0,1-2.88.88c-.62.15-1.21.28-1.79.47a2.94,2.94,0,0,1-1.87.85h0c-3,1.13-8.36,4.87-8.42,4.91l-.21.1a1.91,1.91,0,0,0-.8.66,3.8,3.8,0,0,1-.9.82l-.07.32a1.89,1.89,0,0,1-.43.78l.19.2-.86.45a2.29,2.29,0,0,0-.23.16l-.11.08.13.08,0,.39a1,1,0,0,1-.91,1.05l-.24.19.09.06a2.39,2.39,0,0,1,.95,1c.33.31.64.64,1,1s.7.75,1.1,1.13l.16.15,0,.21a4.83,4.83,0,0,1,0,1.42,2.92,2.92,0,0,0,0,1.12l0,.24a1.41,1.41,0,0,1-.14.58l.06,0v.37a32.76,32.76,0,0,0,.12,3.42,28.56,28.56,0,0,1,.08,4.36A1.45,1.45,0,0,1,46.93,61l-.08.1a2.22,2.22,0,0,0,.13.65,6.12,6.12,0,0,1,.15.69l.07.49-.29.16a1.26,1.26,0,0,1,0,1.3c-.28,8.66-.22,17.09.19,24.38ZM59.1,64.17l-.31-.25c-.6-.5-.87-2.2-1.53-8.23a67.88,67.88,0,0,0-1-7.22L56.15,48l.35-.3C58,46.5,66.58,44.25,69.13,44.25a2.1,2.1,0,0,1,1.05.2l.24.14.09.26c1.28,3.74-.73,6.61-2.5,9.14-.26.38-.53.76-.78,1.14a2.15,2.15,0,0,1-1,1.54c-.8,1-1.59,1.84-2.35,2.68-1,1.06-1.86,2-2.74,3.19l-.22.29h-.36a2.05,2.05,0,0,0-.15.26,1.77,1.77,0,0,1-1,1ZM57.8,48.62c.33,1.54.61,4.16.91,6.91.24,2.13.53,4.85.81,6.33a1.39,1.39,0,0,1,.7-.44c.86-1.09,1.72-2,2.63-3.05.78-.85,1.58-1.74,2.39-2.73l.1-.11.13-.07c.2-.11.26-.25.35-.75l0-.14.08-.12c.28-.43.58-.86.89-1.29,1.65-2.36,3.21-4.6,2.43-7.45h-.12C66.73,45.71,59.67,47.65,57.8,48.62Z"/><path class="cls-2" d="M129.74,51.18c-.18-.29-.63-.39-.63-.78.18-.09.28-.28.45-.28-.81-.39.1-1,.18-1.26l-.35-.1.17-.19-.45-.29c-.19-.19.18-.48-.08-.57-.11-.3.26-.69.36-.78a1.23,1.23,0,0,1-.47-.68c-.45-.09-1.09.48-1.36-.2a1.08,1.08,0,0,1,.09-1c.18-.68.46-.78.64-1.35-.73-.2-1.46.19-2,0,0-.2.1-.2.1-.29a1,1,0,0,1-.73-.3,1.49,1.49,0,0,1,.09-1.25c-.19-.19-.64,0-.82-.19-1.91.19-3.91-.1-5.83.57-.45-.19.09-.67,0-.86-.55,0-1.09.48-1.63.29a5.82,5.82,0,0,0-1.46.48l-.32.07-.23,0c-4.65.59-9.29.3-13.84,1.55-3.09.78-7.09-.29-9.55,2.51-.83.48.36.88-.1,1.36,1.37,1.06-.73,1.63-.09,2.89-.72.68-.18,1.65-.27,2.41-.73,1.07-.54,2.61-.82,3.87-.09.49-.82.49-.55,1.07,0,.67.74.47.83,1-.19,1.93-.73,3.86-.73,5.7-.1,7.82.27,15.45.18,23.27.64,2.52-.1,5,.64,7.35l-.09-.38c.09-.11.17-.3.36-.21s.36.3.27.49a.6.6,0,0,0,.82.39.71.71,0,0,1,.46.67.65.65,0,0,1,.81-.19c.74.1.28,1,.91,1.06,0,.87,1.1,1.16,1.19,2l-.09.2c3.18,2.41,7.46,1.93,11.38,2.51,2.37.29,4.37,1.55,6.82,1.15,1.27-.76,3-.1,4.29-.76a1.84,1.84,0,0,0-.82-.49c.36-.38-.09-.68-.37-.87-.09-.19.09-.39.18-.58s.37,0,.55.1c.27-.29.82-.58.64-1.06-1-.48.08-1.36-.27-1.94,1.36-.67.33-1.9.6-3l-.15,0c.18-.2-.18-.49.18-.68.36-.48,1.1.1,1.45-.48.56-1-1.09-.77-.54-1.74-.28-.28-.28-.87-.82-.77-.09-.39-.54-.19-.82-.39l.14-.36c-.1.09.14-.12,0-.12-.37-.29-.09-.68-.09-1.06-.28-.29-.37-1.06-1.1-.78-3.1-1.45-6.64-1.93-10-2.41,0-.1-.09-.39.09-.48,3.82-.29,7.1,1.34,10.83,1.44-3.73-.39-7.1-1.84-10.83-1.92l-.09-3.29.27-.19c2.27-.2,4.73,0,7-.2,2.19.39,3.55-1.64,5.73-1.55.18-.09.55-.19.55-.47-.37-.3-1.09-.11-1.55-.49.18-.1.36-.29.18-.48l1.47-1.16L120,75.8c.09-.28.36-.19.46-.57-.37-.58.45-1.06.64-1.55-.09-.09-.19-.09-.27-.19a1.72,1.72,0,0,1,.18-1h-.27c-.38-.1-.19-.39-.28-.68.28-.68-.54-.58-.64-1.16-.27-.48.37-.68.64-.87-.1-.38-.73.29-.91-.29a1.68,1.68,0,0,1,.18-1.35l-.46-.19c-.36-.3,0-.58,0-.68l-.54.1c-.36-.3-.09-.87-.27-1.36-.37.2-.55-.29-.64-.47l-2.09-.49a69.62,69.62,0,0,0-9,.19.49.49,0,0,1-.18-.29c1.82-.67,4.37-.48,6.1-.57a24.56,24.56,0,0,0-6,.19,25.49,25.49,0,0,1,0-4.54l.19-.2a37.79,37.79,0,0,0,11.47-2.7,36.31,36.31,0,0,0,4.64-2.42c2.18-.38,3.55-1.45,5.64-1.92l-.18-.1c.54-.39.54-1.55,1.36-1.55"/><path class="cls-3" d="M113,103.66a12.48,12.48,0,0,1-3.51-.66,14.5,14.5,0,0,0-2.45-.58c-1-.15-2.13-.23-3.18-.31-3-.22-6.05-.45-8.55-2.34l-.48-.36.24-.49a3.22,3.22,0,0,0-.35-.41A2.45,2.45,0,0,1,94,97.46a1.43,1.43,0,0,1-.47-.83v0h0l-.76,0-.52-.36a1.25,1.25,0,0,1-1.26-1l-.53.15a12.67,12.67,0,0,1-.39-3.95A12.86,12.86,0,0,0,89.8,88l0-.09v-.1c0-3.88,0-7.79-.09-11.56s-.14-7.77-.09-11.71A20.74,20.74,0,0,1,90,61c.11-.64.22-1.3.3-1.95A1.3,1.3,0,0,1,89.51,58,1.18,1.18,0,0,1,90,56.64l.08-.06a10.81,10.81,0,0,0,.15-1.21,6.29,6.29,0,0,1,.65-2.68,4.62,4.62,0,0,0,0-.48,2.63,2.63,0,0,1,.22-1.85,2.2,2.2,0,0,1,.45-1.66,1.66,1.66,0,0,0,.2-.35s-.06-.07-.19-.17l-.64-.5.37-.38a1.11,1.11,0,0,1,.34-1.61c1.86-2,4.48-2.19,6.79-2.31a16.07,16.07,0,0,0,3.06-.35,43.06,43.06,0,0,1,8.94-1.16c1.64-.09,3.33-.19,5-.4l.41-.07a6.58,6.58,0,0,1,1.57-.5l.18,0,.18.06a1.08,1.08,0,0,0,.45-.12,2.65,2.65,0,0,1,.94-.21h.46l.2.41a1.11,1.11,0,0,1,.07.22A17.13,17.13,0,0,1,123,41c.65,0,1.27,0,1.87-.08l.36,0,.12.12h0a1.21,1.21,0,0,1,.93.32l.32.33-.16.43a1.4,1.4,0,0,0-.14.55l.1,0h.73v.29a3.54,3.54,0,0,1,1.38,0l.72.2-.22.72a3,3,0,0,1-.38.76,1.87,1.87,0,0,0-.25.55l-.08.2a.42.42,0,0,0-.09.24h0a2,2,0,0,1,.85-.07l.4.08.14.38c.08.23.1.26.2.34l.69.49-.59.61-.1.11a.88.88,0,0,1,0,.34l.64.42.17,0,0,.06.05,0-.08.08-.17.55a1.46,1.46,0,0,1-.34.56,2,2,0,0,0-.16.21.4.4,0,0,0-.11-.4l-.18,1h.19a.27.27,0,0,0-.06-.17l.12.09a1.71,1.71,0,0,1,.46.47l.71,1.12h-1.33a2.11,2.11,0,0,0-.23.42l-.06.14,1.19.63-1.92.44a14,14,0,0,0-2.48.88,14.82,14.82,0,0,1-3.08,1c-.41.22-.83.46-1.26.71a20.17,20.17,0,0,1-3.38,1.7,39.73,39.73,0,0,1-11.18,2.72c0,.36,0,.72,0,1.08a14.89,14.89,0,0,0,0,2.1,18.6,18.6,0,0,1,2.64-.16c1,0,1.94,0,2.78.09v.63h.76c.75,0,1.52,0,2.3,0h.16l2.43.57.14.29.27.11.42.46a2.2,2.2,0,0,1,.11.77l.43.3.31.44a.5.5,0,0,1,0,.18l.42.51-.05.57a1,1,0,0,0-.14.4.88.88,0,0,1,1,.68l.12.48-.4.28a2.12,2.12,0,0,1-.27.17h0a1.22,1.22,0,0,1,.61,1.22l.28.33.13.8s0,.13-.07.2l0,0v.61l.18.18a2.48,2.48,0,0,1-.45.7c-.06.08-.16.19-.21.27l.12.19-.08.3a1.32,1.32,0,0,1-.18.43l-.19,1-.44,1.07a1.69,1.69,0,0,1,.75.32l.27.21v.36a1.25,1.25,0,0,1-.86,1.09l-.18.09-.27,0H120a5,5,0,0,0-2.25.74,5.39,5.39,0,0,1-3.37.82c-2.14.17-4.4,0-6.51.15l.06,2.09a32.64,32.64,0,0,1,5.49,1,34.55,34.55,0,0,0,4.7.91L118,87.16h-.21a1.62,1.62,0,0,1,.86.86,1.14,1.14,0,0,0,.09.16l.16.2,0,.29a2.2,2.2,0,0,1-.06.5v0l.12.25a.88.88,0,0,1,.07.27,1.1,1.1,0,0,1,.28.18,1.39,1.39,0,0,1,.87.82,1.19,1.19,0,0,0,.08.16l.38.39-.22.38h0a1.27,1.27,0,0,1,.48,1.83,1.34,1.34,0,0,1-1.22.64h-.09l-.1.37a2.17,2.17,0,0,0,0,.86A2.19,2.19,0,0,1,119,97.6a2.61,2.61,0,0,1-.15.69,1,1,0,0,0-.07.23l.2.1.18.32a1.48,1.48,0,0,1-.63,1.65l-.16.15-.13.14a1,1,0,0,1,.08.31,2.13,2.13,0,0,1,.5.4l.66.7-.86.44a5.09,5.09,0,0,1-2.39.43,3.7,3.7,0,0,0-1.85.32l-.12.07-.14,0A6.35,6.35,0,0,1,113,103.66ZM96.6,98.87c2.09,1.39,4.68,1.58,7.41,1.79,1.07.07,2.18.16,3.26.32a16,16,0,0,1,2.67.62,9.31,9.31,0,0,0,3.81.55,5.38,5.38,0,0,1,2.45-.45h.18l.32-.35h0l-.16-.11-.11-.19a1.14,1.14,0,0,1,.13-1.12l.19-.3a.92.92,0,0,1,.77-.29,1.69,1.69,0,0,1-.07-1.51c0-.08.06-.19.08-.26l-.38-.62.71-.35c.34-.17.38-.25.25-1a5.09,5.09,0,0,1-.09-.71l-.77-.17.69-.75a1,1,0,0,1,.4-.93c.27-.36.23-.3.67-.35l.34,0a1.18,1.18,0,0,1-.43-1.19l0-.11h0l-.51.09-.09-.41a1.32,1.32,0,0,1-.59-.21l-.08-.48-.16-.44-.08-.2.05,0a1.82,1.82,0,0,1,0-.79h0s0-.1-.07-.14l-.06-.11-.2.08-.31-.13c-2.92-1.37-6.3-1.85-9.57-2.31l-.86-.13v-.63a1.22,1.22,0,0,1,.09-.75l-.1-3.88.76-.52.19,0c2.31-.19,4.76,0,7-.19h.09l.1,0a4,4,0,0,0,2.55-.68,11.18,11.18,0,0,1,1.48-.65l-.75-.62.55-.27-.13-.13,1.51-1.2-.52-.6.13-.39a1.09,1.09,0,0,1,.33-.5,1.79,1.79,0,0,1,.51-1.31l0-.06a1.52,1.52,0,0,1,0-.7,1.1,1.1,0,0,1-.34-.87l-.09-.26,0-.15a1.42,1.42,0,0,1-.59-.79,1.11,1.11,0,0,1-.07-.76v0a1.34,1.34,0,0,1-.22-.41,2,2,0,0,1,0-1.2,1.38,1.38,0,0,1-.32-.39l-.22-.18a1.49,1.49,0,0,1-.47-1.28,1.4,1.4,0,0,1-.48-.49l-1.68-.4-2.24,0-2.19,0a35.31,35.31,0,0,0-4.41.23l-.35,0-.25-.24a1.14,1.14,0,0,1-.4-.81v-.51l.06,0a13.88,13.88,0,0,1,0-2.88c0-.5.06-1,.06-1.51v-.3l.6-.61h.28A37.49,37.49,0,0,0,118,56.49a20.58,20.58,0,0,0,3.14-1.59c.47-.28.94-.55,1.4-.79l.22-.08a12.64,12.64,0,0,0,2.88-1,17.85,17.85,0,0,1,2.07-.79l.21-.15a1.53,1.53,0,0,0,.24-.43,4,4,0,0,1,.38-.67,1.1,1.1,0,0,1-.18-.64V50l.12-.06a1,1,0,0,1,.07-.59l-.55-.15.46-.49a.91.91,0,0,1-.15-.69v0a1.11,1.11,0,0,1,.06-.88,1.68,1.68,0,0,1-.4,0,1.17,1.17,0,0,1-1.12-.8,1.75,1.75,0,0,1,.1-1.61,1.85,1.85,0,0,1,.11-.31,2.36,2.36,0,0,1-1-.06l-.5-.16v-.29a1.76,1.76,0,0,1-.43-.33l-.1-.1-.06-.14a2,2,0,0,1-.13-.94l-.06,0c-.59,0-1.19.06-1.77.07a11.45,11.45,0,0,0-3.67.45l-.27.09-.26-.11a1,1,0,0,1-.55-.54,2,2,0,0,1-.81,0,5.8,5.8,0,0,0-1.15.4l-.14,0-.62.11c-1.69.21-3.41.31-5.08.41a41.3,41.3,0,0,0-8.65,1.11,17.14,17.14,0,0,1-3.36.4c-2.25.12-4.37.23-5.83,1.89h0a1.4,1.4,0,0,1,.19.67,1.63,1.63,0,0,1-.07,2.09c-.27.41-.3.51-.21.69l.25.49-.4.37c-.18.16-.18.37-.1,1a3.64,3.64,0,0,1,.06,1l0,.18-.11.15a4.82,4.82,0,0,0-.52,2.17,10,10,0,0,1-.19,1.44,1.41,1.41,0,0,1-.54.81h0l0,0a1.24,1.24,0,0,1,.79.9l0,.1v.11c-.07.8-.21,1.6-.34,2.38a19.1,19.1,0,0,0-.38,3.25c0,3.92,0,7.86.09,11.67s.14,7.64.09,11.52a14.31,14.31,0,0,1,.28,3.71,17.59,17.59,0,0,0,.09,2.43l.13,0a1.26,1.26,0,0,1,.67.79l.06,0,.28.07a1.33,1.33,0,0,1,.57.38,1.76,1.76,0,0,1,.64.08,1.29,1.29,0,0,1,1,1.08l.43.07V97c0,.14.12.27.38.53A2.4,2.4,0,0,1,96.6,98.87Z"/><path class="cls-2" d="M156.8,123.19c-1.63,3.64-6.38,12.8-9.93,16.49l-1.05-6.9c-.1.19-1.9-2.55-2-2.46.18-.77-4.06,3.12-4,2.35-.27-1.07,1.28-2.92,1.52-5.5,0-.39-3.59,2.83-3.86,2.92-.09.1,3.7-6.7,3.51-6.9l1-2.92c-1.64,1-4.73,7.85-6.19,9,.44-3.21-5.51,0-5-2.22-.18-.09,5-9.4,4.74-9.3-1.73,1.84-5.07,6.18-6.84,8.25.7-.82-11.26-2.72-9.72-5.14l3.4-3.86c-2.94-1.31-7.57.07-7.32,0,3.19-1.28,8.83-6.09,14.7-10.78,2-1.59,8.84-8.64,9.8-10.65,2.46-5.2-.7-10.46-2.21-12.32-.31-.39-5.1-6.22-5.28-6.52-3.37-7.63-1.17-13.64,4.57-24.17,1.91-3.48,4.73-6.37,7.29-9.08a45.22,45.22,0,0,1,6.82-4.15c.09-.78.83-.87,1.19-1.55l1.09.2a3.64,3.64,0,0,0,2.82.68c.09.28.37,0,.64.08v.1c.36.3.73-.29.63.39.82.48,1.74-.87,2.28,0,.18,0,.73.1.55.58.36-.19,1,.48,1.27-.19,1.37,1.64-.91,3.08-1.09,4.63-.36,1.45-.55,3.39-3.82,6.85-.37.4-1.19.4-1.09,1.08-.1.48-.74,1.05-1.1,1.64-.45.09-4.86,8.06-4.12,14.83,1.27,6.36,11.65,8.64,15,21.38,1.55,5.8-4.17,24.12-8.27,33.19"/><path class="cls-3" d="M146.37,141.25l-1.22-8.05a13.08,13.08,0,0,1-1.07-1.39l-.3-.41-1.23,1.22.2-.88-.36.28c-1.47,1.12-2,1.48-2.46,1.48h-.33l-.28-.27a.77.77,0,0,1-.2-.48,4.48,4.48,0,0,1,.58-2.44c.2-.47.41-1,.59-1.51l-.93.75c-1.26,1-1.42,1.17-1.64,1.24l-.53.16-.3-.47c-.23-.37-.23-.37.5-1.71l.5-.94a8.37,8.37,0,0,1-1.56,2L134.91,131l.24-1.79a.71.71,0,0,0-.05-.52c0-.05-.23-.18-.88-.18a11.89,11.89,0,0,0-1.19.08c-.42,0-.82.08-1.17.08a1.87,1.87,0,0,1-1.5-.54,1.32,1.32,0,0,1-.25-1c0-.32.27-.9,1.82-3.8-1,1.22-1.93,2.39-2.62,3.2h0l-.55-.47h-.7a.52.52,0,0,0,.17.35,18.26,18.26,0,0,0-2.84-1c-3.83-1.16-6.58-2.09-7.12-3.54a1.46,1.46,0,0,1,.16-1.34l.06-.09,2.67-3a13.49,13.49,0,0,0-5.75.3,1,1,0,0,1-.3,0h-.6l-.23-1.18.57-.23c2.57-1,7-4.62,11.71-8.41l2.81-2.26c2-1.57,8.71-8.54,9.59-10.39,2.6-5.5-1.63-11-2.12-11.55l-.33-.4c-4.23-5.18-4.9-6-5-6.19l-.05-.09c-3.41-7.75-1.34-13.92,4.6-24.82A43.49,43.49,0,0,1,143,43.43l.53-.55a37.74,37.74,0,0,1,5.77-3.59l.88-.48a2.26,2.26,0,0,1,.77-1,1.42,1.42,0,0,0,.4-.42l.25-.47,1.86.38a3,3,0,0,0,2.27.6l.69-.18.06.23a1.35,1.35,0,0,1,.29,0l.36.12h.3l.29.27a.83.83,0,0,1,.08.12l.25-.1a1.68,1.68,0,0,1,1.8.1,1.22,1.22,0,0,1,.74.49.35.35,0,0,1,.06.09h.06l.39-.77.74.78c1.21,1.45.35,2.82-.27,3.82a4,4,0,0,0-.65,1.36l-.12.53c-.35,1.47-.81,3.48-3.9,6.74a2.28,2.28,0,0,1-.71.48l-.19.09v.15a3.15,3.15,0,0,1-.74,1.28,5.72,5.72,0,0,0-.44.6l-.17.27-.11,0c-.77,1-4.41,8-3.75,14.08.48,2.39,2.5,4.22,5,6.52,3.55,3.21,8,7.19,10,14.75,1.68,6.31-4.52,25.28-8.32,33.68-1.71,3.82-6.43,12.92-10.07,16.7Zm-.16-10.77,1.14,7.54c3.32-4.11,7.32-11.87,8.78-15.13,4.25-9.39,9.7-27.23,8.24-32.7-1.89-7.14-6.12-11-9.52-14-2.65-2.39-4.93-4.46-5.52-7.39-.64-5.89,2.66-13.62,4.23-15.34h0a7.15,7.15,0,0,1,.55-.75,4.3,4.3,0,0,0,.43-.59,1.48,1.48,0,0,1,1-1.33,1.23,1.23,0,0,0,.29-.17c2.81-3,3.21-4.69,3.54-6.07l.11-.46a4.72,4.72,0,0,1,.84-1.87c.45-.72.69-1.16.65-1.55a2,2,0,0,1-.68-.1l-.08,0-1.59.81.53-1.36h-.05l-.22-.29-.26.11a2.1,2.1,0,0,1-1.82.07l-.41-.25v0l-.18-.09a.89.89,0,0,1-.51-.06,4.56,4.56,0,0,1-2.88-.77l-.51-.09a5.24,5.24,0,0,1-.44.41c-.28.23-.33.29-.35.42l0,.37-.33.19-1.17.63A36.56,36.56,0,0,0,144.47,44l-.42.44a42.7,42.7,0,0,0-6.72,8.45c-5.8,10.64-7.72,16.26-4.57,23.46.18.25,1.21,1.54,4.87,6l.33.4c.55.68,5.3,6.79,2.31,13.1-1,2.2-8.11,9.4-10,10.91l-2.8,2.26c-3.27,2.63-6.24,5-8.68,6.69a9,9,0,0,1,3.94.63l.9.4-4,4.52c.14.87,4.51,2.2,6.16,2.7a23.35,23.35,0,0,1,2.88,1c.61-.74,1.35-1.65,2.11-2.6,1.57-1.94,3.19-4,4.26-5.09l.12-.13.41-.1H136l.22.36c.27.44.27.44-2.29,5.23-.9,1.7-2.13,4-2.35,4.53h0a8.41,8.41,0,0,0,1.31-.06c.44,0,.9-.08,1.33-.08a2.53,2.53,0,0,1,2,.69l0,0c.54-.79,1.2-1.91,1.8-2.94,1.59-2.73,2.71-4.57,3.68-5.14l1.74-1-1.68,4.66a20.58,20.58,0,0,1-1.91,4c1-.77,1.21-.86,1.49-.86h.32l.46.48,0,.34a11.82,11.82,0,0,1-1,3.64c-.07.16-.14.32-.2.48l.66-.49c1.43-1.09,1.84-1.37,2.26-1.37h.35l.27.3a.56.56,0,0,1,.09.14c.18.2.41.52.78,1,.12.16.26.37.41.56Z"/><path class="cls-2" d="M216.23,94.35c-.36-.19,0-.38-.27-.68a139.33,139.33,0,0,0-.19-17.47c-.63-9.09-3.73-18.26-3.26-27.53a10.16,10.16,0,0,0-.92-3.19c-.46-.1-.91-.68-1.64-.68-.64-.48-.27-1.25-.55-1.93-1.63-.38-1.36-1.93-2-3-.82-.77-1.91-1.45-2.65-2.23-.17-.57-.36-.28-.8-.48-1.19-.19-.47,1.46-1.1,2,0,.2-.18.29-.37.29s-.36.1-.45,0a3.27,3.27,0,0,1-1.28,1.93,1.65,1.65,0,0,1-.91,1.54c-.27.49.1,1.46-.45,1.75-.64-.29-.73.38-.92.67a21.33,21.33,0,0,1-.9,5,51,51,0,0,0-.1,8.4l-.26,1,.81,6.48c-1.63-.09,2.07.15.33.15,1.46.28-.33-.15-.68.14s.54.67.63,1.06l-.28.1-10.28-.59c-.82-.67-.28-1.83-.55-2.7-.36-.29-.64-.67-.45-1.06-1.38-5.7-1.73-11.79-3.19-17.58.18-.87-.55-3.87-1.46-4.35l-.18.2c-1.55-.1-2.09,1.93-3.19,1.25-.36.2-.54-.29-.9-.29a5.57,5.57,0,0,1-3.56.09c-.09-.09-.27-.18-.27-.28h.18l-.09-.09-.09.09a.16.16,0,0,1-.27,0c-.55-.09-.46,0-1,.19l-1-.19-.18.77c-.54,5.22.45,10,.18,15.07-.54,10,1.37,21.25.09,31.39-.27,1.06.55,1.94.55,3,.37,1.73,1.09,3.18,1.46,4.92.91.29,1,1.06,1.82,1.45.09,0,.09-.19.18,0,.37.2.1.39.18.58.63,0,1.18-1.35,2-.48l.45,1c.09-.2-.09-.68.27-.68.63.38.63,1.26,1.1,1.74l0-.17,0,.17c-.1-.39-.18-.68,0-.88s.73-.18,1-.38c.27.29.18.78.54,1.06a.35.35,0,0,1,.09-.28c.37.57,1.47-.1,1.46.86,0-.26,0,0,.18-.1.55-.48,1.27.88,1.37-.28.55-.29,1.09-.68,1.64-.58.55-1.55.73-3,1.36-4.45.18-.09.18.1.28.1a17.14,17.14,0,0,0,1.54-4.63,3.24,3.24,0,0,0,.64-2.13l.1-5.9.27-.09a44.38,44.38,0,0,0,8.73-.19l.18.38a67.09,67.09,0,0,0,.1,7.54c.18.1.36.1.46.29.18,2.89,1.17,5.5.9,8.5.92.58-.45,2.41,1.37,2.22.45.19.09.77.64.77.09.19,0,.39,0,.58,1.09,1.06,1.72-1.45,2.82-.19.45,0,.18.67.45.87.28-.49.64,0,1,.09.54.29,1-.77,1.73-.19a1.16,1.16,0,0,1,.54.58.19.19,0,0,0,0,.29v-.19c.09-.1.27-.1.36-.2.91.78,1.1-1,2.1-.29.46-.29.92-.19,1-.77.45-.1.9-.39,1.45-.58h.18c.55-1.64,1.36-3.09,1.45-4.93a11.66,11.66,0,0,0,.46-3.67"/><path class="cls-3" d="M209.53,105.92l-.85-.45a1,1,0,0,1-.26-.67l0,0-.17-.1-.21.1a1.51,1.51,0,0,1-1.33.2,1.1,1.1,0,0,1-.29-.12l.09.62-1-.67a1.15,1.15,0,0,1-.44-.84l-.13-.15a.47.47,0,0,0-.14-.12,3.56,3.56,0,0,1-.32.26,2.06,2.06,0,0,1-1.26.57,1.52,1.52,0,0,1-1.07-.47l-.22-.22v-.41a1.1,1.1,0,0,1-.3-.51,1.45,1.45,0,0,1-1-.41,1.88,1.88,0,0,1-.38-1.43,1.67,1.67,0,0,0,0-.52l-.38-.24.05-.42a18.23,18.23,0,0,0-.43-5c-.17-1-.36-2-.44-3l-.11,0-.33-.18-.05-.38a40.35,40.35,0,0,1-.12-5.41c0-.58,0-1.17,0-1.77a26.92,26.92,0,0,1-3.73.22c-1.1,0-2.22,0-3.32-.08l-.68,0-.09,5.25c0,.2,0,.32,0,.45a3.41,3.41,0,0,1-.64,2,17.94,17.94,0,0,1-1.58,4.64l-.2.4h-.27c-.22.6-.38,1.21-.55,1.85a19.48,19.48,0,0,1-.59,2l-.21.59-.61-.11a2.26,2.26,0,0,0-.85.33h0a.91.91,0,0,1-.91.74,1.41,1.41,0,0,1-.69-.22.31.31,0,0,0-.1,0l-.13.07-.27,0a.77.77,0,0,1-.57-.23l.39-.42h-.65a.45.45,0,0,0,.19.16l-.22,0h-.09l0,.68-1.13-.82c-.15-.13-.26-.26-.29-.16l-.51.77-.82-.49a2.32,2.32,0,0,1-.45-.7l-.4.85-1.05-2.24h0s-.14.16-.24.25a1.8,1.8,0,0,1-1.15.53h-.48l-.19-.44a.9.9,0,0,1-.07-.24,3.31,3.31,0,0,1-1-.85,1.46,1.46,0,0,0-.68-.54l-.4-.13-.09-.41a18.2,18.2,0,0,0-.71-2.39,24.3,24.3,0,0,1-.75-2.53v-.15a3.35,3.35,0,0,0-.26-1.06,3.51,3.51,0,0,1-.27-2.12c.7-5.6.4-11.75.11-17.69-.22-4.53-.45-9.21-.22-13.56a59.13,59.13,0,0,0-.14-6.68,49.34,49.34,0,0,1,0-8.43l.35-1.54,1.49.29.1,0a1.46,1.46,0,0,1,.64-.16l.29,0,.61.08.43.18.17.17a4.54,4.54,0,0,0,2.63-.15l.14-.07h.16a1.36,1.36,0,0,1,.76.27l.17-.09.36.22c.16,0,.43-.22.59-.37a3.3,3.3,0,0,1,1.88-1l.35-.38.5.27c1.24.66,2,3.76,1.86,4.95.74,3,1.2,6.07,1.65,9.06.42,2.78.85,5.67,1.51,8.39l.06.25-.11.22s.09.07.25.2l.17.13.06.21a3.68,3.68,0,0,1,.11,1.3,2,2,0,0,0,.09.91l4.63.27,4.61.25c.52-1.5-.57-1.65-.13-1.44l-.72-5.76.27-1a52.14,52.14,0,0,1,.1-8.4l0-.2a12.08,12.08,0,0,0,.67-3.33c.06-.51.12-1,.19-1.53l0-.16.08-.13.06-.12a1.37,1.37,0,0,1,1.07-1v-.2a2.3,2.3,0,0,1,.21-1.1l.1-.17.17-.1a.93.93,0,0,0,.55-.92V41l.33-.22a2.45,2.45,0,0,0,1-1.51l.43-.47.56-.12.05,0a2,2,0,0,0,.08-.57c0-.5.12-1.67,1.33-1.67l.29,0,.18.06.14,0a1.06,1.06,0,0,1,1,.72,11.69,11.69,0,0,0,1.26,1.06c.42.33.86.67,1.25,1l.13.16a5.44,5.44,0,0,1,.5,1.29c.23.84.37,1.22,1,1.37l.36.09.14.35a2.9,2.9,0,0,1,.19,1.06,1.77,1.77,0,0,0,.05.45,3.15,3.15,0,0,1,1.12.48,1.91,1.91,0,0,0,.32.18l.36.09.15.33a10.8,10.8,0,0,1,1,3.41v.1C213,54.13,214,59.64,214.91,65a108,108,0,0,1,1.59,11.19,139.52,139.52,0,0,1,.2,17.34.91.91,0,0,1,.09.33l.11.06,0,.37a8.56,8.56,0,0,1-.29,3.1c-.06.28-.12.55-.17.8a11.3,11.3,0,0,1-1,3.74c-.16.43-.33.85-.48,1.29l-.17.5h-.57l-.5.21-.52.23a1.49,1.49,0,0,1-.9.68,1.58,1.58,0,0,0-.29.12l-.4.25-.39-.27s-.12.07-.18.12a1.56,1.56,0,0,1-1.14.5Zm0-2.34.51.43.08-.07a1.67,1.67,0,0,1,1.12-.53,1.42,1.42,0,0,1,.45.08l.18-.07.11,0L212,103l.48-.14a3.67,3.67,0,0,0,.65-.25c.19-.09.39-.18.6-.26.12-.32.24-.64.37-1a10.67,10.67,0,0,0,.91-3.37,9.6,9.6,0,0,1,.19-1,8.69,8.69,0,0,0,.3-2.32,1,1,0,0,1-.21-.64l-.12-.14,0-.3a138.38,138.38,0,0,0-.18-17.39,106.69,106.69,0,0,0-1.58-11c-1-5.39-2-11-1.69-16.54a8.76,8.76,0,0,0-.75-2.63l-.37-.22a1.44,1.44,0,0,0-.71-.3h-.25l-.19-.14a2,2,0,0,1-.71-1.67,2.46,2.46,0,0,0,0-.28,3,3,0,0,1-1.66-2.26,4.7,4.7,0,0,0-.3-.85c-.32-.29-.68-.57-1.06-.87a11.46,11.46,0,0,1-1.53-1.31l-.14-.18-.17,0a2.65,2.65,0,0,0,0,.27,2.53,2.53,0,0,1-.38,1.35,1,1,0,0,1-1,.66,3.9,3.9,0,0,1-1.11,1.6,2.26,2.26,0,0,1-1,1.62c0,.09,0,.21,0,.3a1.64,1.64,0,0,1-.72,1.62l-.32.17-.16-.07h0c0,.06-.05.11-.07.16-.07.45-.12.9-.17,1.35a13.78,13.78,0,0,1-.73,3.62,51.21,51.21,0,0,0-.08,8.18v.12l-.26.95.85,6.81a2.34,2.34,0,0,1,.17.62l.19.8-1,.37-10.67-.6-.18-.15a2.47,2.47,0,0,1-.74-2.24,4.46,4.46,0,0,0,0-.64,1.56,1.56,0,0,1-.55-1.48c-.64-2.73-1.07-5.57-1.48-8.32-.45-3-.91-6.09-1.66-9l0-.16,0-.17a7.29,7.29,0,0,0-.83-3.27h-.13c-.5,0-.76.23-1.2.63a2.37,2.37,0,0,1-1.51.76,1.37,1.37,0,0,1-.52-.1,1.21,1.21,0,0,1-.83-.27,6.5,6.5,0,0,1-3.74,0l-.19-.05-.14-.14a1.09,1.09,0,0,1-.24-.07h-.18a2.62,2.62,0,0,1-.36.15l-.18.07-.52-.1,0,.08a50.88,50.88,0,0,0,0,8.1,59.41,59.41,0,0,1,.15,6.84,132.31,132.31,0,0,0,.22,13.41c.29,6,.6,12.23-.14,18a2.27,2.27,0,0,0,.21,1.36,4.89,4.89,0,0,1,.35,1.46,20.24,20.24,0,0,0,.68,2.3c.24.7.49,1.41.68,2.18a3.11,3.11,0,0,1,.92.81,4,4,0,0,0,.34.36.69.69,0,0,1,.63.28l0,0a1.73,1.73,0,0,1,1.06-.43,1.48,1.48,0,0,1,1.09.52l.06.07h.34l.18.11a2,2,0,0,1,.67.7,2.67,2.67,0,0,1,.34-.11l.27-.08.51-.31.45.4a1.25,1.25,0,0,1,.15.19l.08-.08.44.7.21,0a1.56,1.56,0,0,1,1.07.38,1.29,1.29,0,0,1,.49.07l.61-.33a4,4,0,0,1,1.17-.48c.15-.48.27-1,.39-1.43a17,17,0,0,1,.83-2.6l.11-.23.43-.21a15.84,15.84,0,0,0,1.23-3.92l0-.22.15-.16a1.84,1.84,0,0,0,.4-1.28c0-.15,0-.3,0-.44L189.3,83l.88-.3,1.29,0c1.09,0,2.19.08,3.27.08a23.34,23.34,0,0,0,4.16-.3l.55-.1.48,1v.16c0,.76,0,1.5,0,2.24a44.87,44.87,0,0,0,.08,4.81,1,1,0,0,1,.43.45l.07.13v.15a28.54,28.54,0,0,0,.46,3.23,20.57,20.57,0,0,1,.47,5,2.17,2.17,0,0,1,.33,1.46c0,.1,0,.24,0,.33H202l.19,0,.17.08a1.09,1.09,0,0,1,.65.72h.16l.2.41a.8.8,0,0,1,.1.31l.18-.14a2,2,0,0,1,1.25-.56,1.49,1.49,0,0,1,1,.42.91.91,0,0,1,.57.62,1.47,1.47,0,0,1,.55.23l.15.08h0l.11-.07a1.83,1.83,0,0,1,1-.33,1.39,1.39,0,0,1,.81.28,1.2,1.2,0,0,1,.34.23Z"/><path class="cls-2" d="M259.84,94.25c-.1.28.45.19.17.58a7.86,7.86,0,0,1-1.64.48c-.17.1-.08.39-.17.57.17.4.54.1.81.2.36-.2.83.2,1.28,0,.36.77-.55.68-.92.77-.36-.09,0,.29-.36.4.1.28.46,0,.73.18.1.39-.55.68-.18,1,.09.88-1,.59-1.09,1.27a.67.67,0,0,0-.64.58c.26.19.64.19.54.57-.54,0-.72.68-1.08.87l-.1.1.64.29c-.1.1-.36.29-.46,0-.36.29-1-.1-1.27.2.18.48.55.19.91.48,0,.09-.64.19-.36.67-.37-.1-1.1-.28-1.37.29-.09.87-1.28-.19-1.55.68l.36.29a21.82,21.82,0,0,0-3.28.68c-1.27-.1-2.54.38-3.81-.1-1.1-.49-6.46-3-9.1-4.45-1.37-1-2.74-2-4.11-3.18-4-3.57-7.55-8.8-8.65-14.1-3.64-8.31.28-24.83,2.92-29.37,4-6.76,10.92-12.94,17.84-16.71,1.19-.49,5,.1,6.37.58.19.48.55.19.92.48a3,3,0,0,0,.45.77h.28c-.1.2-.1.39-.28.49.28.58,1.64,1.45,2,1.93a1.36,1.36,0,0,0,.18,1.17c.45-.21.45.28.73.48-.1.48-.46,1.15,0,1.54l.27.09c-.1,2-2.19,2.23-3.46,3.58-1.18,1.54-2.64,3-3.92,4.54-2.18,2.6-7.74,10.82-9,14.39-1.45,4.06-1.9,9.08-.45,13.14-.18,1,.73,1.44.65,2.32a2.12,2.12,0,0,1,.63,1.34c2.19,4.35,2.37,4.16,6.37,5.8a22.6,22.6,0,0,0,7.92.58c3.37-.38,3.1-1.06,6.47-.87.09.29-.37.29-.37.58A2.37,2.37,0,0,0,261,92l.27.29c-.19.1-.19.2-.27.39.82.48,1.91.39,2.81.67l.19.1c-1.09.39-2.83.2-4.18.78"/><path class="cls-3" d="M248.32,106.21a4.33,4.33,0,0,1-1.58-.27c-1.29-.57-6.59-3-9.2-4.49l-.09-.06-1.21-.92c-1-.72-1.94-1.46-2.92-2.29-4.51-4-7.82-9.41-8.88-14.43-3.69-8.58.35-25.41,3-29.95a48.9,48.9,0,0,1,18.12-17,4.61,4.61,0,0,1,1.77-.27,19.54,19.54,0,0,1,5.2.8l.32.11.07.19a1.43,1.43,0,0,1,.73.31l.17.18a3.64,3.64,0,0,1,.2.39v0l.65.23-.1.83s0,.08,0,.12c.22.21.54.48.75.65a5.9,5.9,0,0,1,.94.88l.24.3-.12.36a1.06,1.06,0,0,0,0,.21,1.22,1.22,0,0,1,.64.57.24.24,0,0,0,.06.08l.39.28-.14.44a3.06,3.06,0,0,1-.1.38,2.73,2.73,0,0,0-.1.41l.51.18,0,.54c-.08,1.71-1.26,2.42-2.29,3.05a6.45,6.45,0,0,0-1.37,1c-.65.85-1.45,1.74-2.21,2.59-.57.63-1.14,1.26-1.68,1.91-2.26,2.7-7.68,10.78-8.89,14.18-1.56,4.36-1.73,9.08-.45,12.64l.07.19,0,.19a1.12,1.12,0,0,0,.24.76,2.89,2.89,0,0,1,.42,1.16A2.79,2.79,0,0,1,242,84.1c1.85,3.67,2,3.73,5.14,5l.79.32a19.39,19.39,0,0,0,5.41.62,20.76,20.76,0,0,0,2.16-.1,15.75,15.75,0,0,0,2.68-.51,10,10,0,0,1,3.9-.35l.51,0,.15.49a.92.92,0,0,1-.34,1h0l-.15.19a3,3,0,0,0-.49.91l.6.64.46.06a8.13,8.13,0,0,1,1.25.25l.31.15,1.46.78-1.56.55a8.45,8.45,0,0,1-1.91.33,12.53,12.53,0,0,0-1.53.21,1.21,1.21,0,0,1-.16.46l.29.61a1.16,1.16,0,0,1,0,1.13,1,1,0,0,1-.5.46,1.2,1.2,0,0,1-.2.82l0,.14a1.39,1.39,0,0,1-1,1.48l-.12.06-.11.53a1,1,0,0,1,0,.59l-.13.56h-.53l.63.29-.69.74a1.28,1.28,0,0,1-.64.37.79.79,0,0,1-.28.41l.66,1.2-1.64-.42A1.86,1.86,0,0,0,256,104h0a1,1,0,0,1-.64.71l.83.67h-2.06a6.92,6.92,0,0,0-1.71.32,13.41,13.41,0,0,1-1.45.35h-.17a7.19,7.19,0,0,0-1.31.06C249.07,106.17,248.69,106.21,248.32,106.21Zm-10-6c2.58,1.42,7.76,3.85,9,4.39a4.86,4.86,0,0,0,2,.09,10.27,10.27,0,0,1,1.47-.06,11.86,11.86,0,0,0,1.21-.29c.36-.1.72-.2,1.09-.28a1.35,1.35,0,0,1,1.57-.72,1.4,1.4,0,0,1,.83-.68l-.06-.13-.15-.42.3-.32a1.18,1.18,0,0,1,1-.36l.41-.38.13-.17.14-.18-.2-.15.1-.47a1.47,1.47,0,0,1,.83-1,1.68,1.68,0,0,1,.78-.58h0a1,1,0,0,1,0-.45.93.93,0,0,1-.43-.52l-.24-.72h0a1,1,0,0,1-.57-.57l-.13-.31.14-.3a1,1,0,0,1,.49-.9l.13-.06.7-.17.24-.06a1.07,1.07,0,0,1,0-.36l.11-.31.3-.13a4.94,4.94,0,0,1,1-.31l-.46-.27.27-.6h0l0,0,0-.23a2.42,2.42,0,0,1,.39-1.63,8,8,0,0,0-2.16.34,19,19,0,0,1-2.89.56,24.34,24.34,0,0,1-8.27-.63l-.79-.32c-3.49-1.41-3.87-1.66-6-5.83l-.08-.15v-.18a1.38,1.38,0,0,0-.44-.84l-.22-.25,0-.32a1.15,1.15,0,0,0-.24-.65,2.6,2.6,0,0,1-.42-1.53,21.05,21.05,0,0,1,.51-13.45c1.31-3.66,6.86-11.89,9.14-14.62.55-.66,1.13-1.31,1.71-2,.79-.88,1.53-1.7,2.19-2.56a7.41,7.41,0,0,1,1.72-1.31c.83-.5,1.34-.83,1.52-1.42a1.62,1.62,0,0,1-.33-1.68l-.12,0-.35-.47a2,2,0,0,1-.36-1.34l-.52-.44A5.29,5.29,0,0,1,253,40.09l-.3-.62.13-.08-.14-.28v0h0a1.2,1.2,0,0,1-.87-.44,18.64,18.64,0,0,0-4.46-.64,3.17,3.17,0,0,0-1.14.13,47.33,47.33,0,0,0-17.49,16.4c-2.54,4.37-6.45,20.56-2.88,28.7l0,.15c1,4.75,4.14,9.87,8.43,13.7.93.79,1.9,1.52,2.84,2.23Z"/><path class="cls-2" d="M303.35,70.1c1.64,4.15.09,9-2,12.55-2.45,3.48-5.91,4.93-9.18,6.77-3.56-.78-6.47-2.81-9.29-5.42a4.77,4.77,0,0,1-1.37-3.19c-.09-.86.55-1.34.45-2.11h.1c2.63-7.64,7.83-13.43,13.38-19.61,1.37.68,2.27,2.22,3.55,3.28.36-.29.18.39.46.58.9,1.55,2.09,2.8,3.08,4.25h.19c-.08,1,.55,1.84.64,2.9m15,7.44a76.07,76.07,0,0,0-2-12.27c-.09-.58-.73-.67-.46-1.45-1.64-4-3.37-8.21-6.19-11.59.19-.68-.63-.1-.46-.87a36.34,36.34,0,0,0-6.63-5.89.9.9,0,0,0-1.19-.78c-.19-.09-.45-.28-.37-.47h-.73c-1.18-.68-2.45-1.35-3.73-2l-.23.08.05-.28-.27.09L296,42c-.09,0-.28,0-.28-.1h-.36a6,6,0,0,0-3.18-.58c-.1.49-.65.1-.92.39,0,.1.27.29,0,.49-.09-.2-.18-.2-.27-.2.27.77-.82,0-.73.77-.64,0-1,.78-1.28,1.46.28.28,0,0-.08.57s-.68,1.1-.81.58c.26,1-.38,1.35,0,2.22-.19.49-.55-.09-.64.11.55.47.09,1.44.45,2-.64.77-3.73,4.15-5,5.5A15.18,15.18,0,0,0,281.31,57c-.63.2-5.27,6-5.45,6.48a35.06,35.06,0,0,0-7.29,16.32l.46.16c3.29-6.59,4.28-13.18,8.46-18.69-4.55,5.79-9.29,12.35-9.38,20.36l.28.19a25.45,25.45,0,0,0,.45,6.48c.09.77,1,1.16.83,2a19.45,19.45,0,0,0,1.45,2.12c.09.58,1.1.48.73,1.26a2,2,0,0,1,1.36,1.25c.55,0,1.19.68,1.64,1,.19-.09.55.2.74-.18,1.72,1,3.46.77,5.36,1.15a5.73,5.73,0,0,1,4-.57c-.45,1.44-2.46,2.6-2.46,4.24a8.17,8.17,0,0,1,2.18-.19c-.17.38-.72.78-.54,1.26a3.93,3.93,0,0,0,1.45,0c0,.19.1.48-.17.68.35,1.34-.91,2.21-.91,3.57-.09.38.45.76,0,1.06.63.1,1.54-.86,2.27-.39-.91.68.18,1.45.09,2.13,1.28.19,2.54-1.07,3.92-1.07-.46.58.41-.13-.05.36,1.28-.58.68-.84,2.23-.55.91.49,1.46-.19,2.18-.19.19.29.74.19.65.68.63-.19.54.67,1,.67s.63-.39.82.1c3-.1,4.9-3.87,7.37-4.54,1.09,0,1.82-1.16,2.64-1.64h.09a29.15,29.15,0,0,0,3.55-3.19,13.54,13.54,0,0,0,2.91-4.63,21.4,21.4,0,0,0,3.1-8.21c.54-1,.36-2.32.82-3.58-.09-1.45.54-3.18,0-4.35.09-.39-.09-.68.27-1"/><path class="cls-3" d="M287.13,109.39l-.36,0-.72-.11.1-.72a2.92,2.92,0,0,0-.16-.36,2.89,2.89,0,0,1-.28-.86h0a2.37,2.37,0,0,1-1.3.29l-1.89-.3,1.37-.88a1.34,1.34,0,0,1-.09-.66,4.13,4.13,0,0,1,.58-1.88c.3-.62.47-1,.35-1.44l0-.07a3.93,3.93,0,0,1-.73-.09l-.37-.1-.13-.35a1.16,1.16,0,0,1,0-.75,3.39,3.39,0,0,0-.7.12l-.94.28v-1a4.81,4.81,0,0,1,1.48-3c.2-.23.39-.45.56-.67a4.77,4.77,0,0,0-2.49.61l-.24.13-.27-.05c-.58-.12-1.17-.18-1.74-.24a10.42,10.42,0,0,1-3.4-.77,1.15,1.15,0,0,1-.64,0l-.22.11-.35-.22a4.32,4.32,0,0,1-.49-.36,3.11,3.11,0,0,0-.76-.49l-.48,0-.21-.46a1.33,1.33,0,0,0-.79-.76l-1-.17.34-.72a1.58,1.58,0,0,1-.64-.7,5.86,5.86,0,0,1-.81-1.18,8.93,8.93,0,0,0-.57-.88l-.21-.26.06-.34c0-.15,0-.26-.27-.59a2.49,2.49,0,0,1-.56-1.2L267.94,87a20.92,20.92,0,0,1-.32-4.91l-.24-.17v-.38c.08-6.71,3.42-12.33,5.93-16,.33-.49.68-1,1-1.45.53-.71,1.06-1.42,1.59-2.11l.68-.88.31-.39h0a34.35,34.35,0,0,1,3.86-4.34,10.19,10.19,0,0,1,1.13-1.27l.43-.45c1.13-1.2,3.72-4,4.7-5.15a3.78,3.78,0,0,1-.06-.8,1.31,1.31,0,0,0,0-.52l-.41-.35.41-.93.27,0a4.64,4.64,0,0,1,.11-.62,1.45,1.45,0,0,0,.05-.78l1.41-.35a.52.52,0,0,0-.51-.35.37.37,0,0,0-.23.06.42.42,0,0,0,.11-.18,2.17,2.17,0,0,1,0-.25l0,0,.14-.49a3.14,3.14,0,0,1,1.34-1.78,1.4,1.4,0,0,1,.12-.18,1,1,0,0,1,.37-.25l-.16-.45h.68l.07-.07a1.16,1.16,0,0,1,.79-.35l.05-.22.54-.05a6.81,6.81,0,0,1,3.42.58h.92v.06l.65.07.15.4.14.07c1.08.58,2.16,1.15,3.17,1.73h1.65l-.2.44a1.61,1.61,0,0,1,1.28,1.1,36.45,36.45,0,0,1,6.56,5.87l.22.28,0,.08a.71.71,0,0,1,.31.31.9.9,0,0,1,.13.43c2.89,3.55,4.67,8,6.12,11.55l.1.25-.09.26a.38.38,0,0,0,0,.11.84.84,0,0,1,.1.12,1.76,1.76,0,0,1,.42.87,74.09,74.09,0,0,1,2,12.33l0,.38-.26.21v.06a2.62,2.62,0,0,1,0,.27,6.08,6.08,0,0,1,.09,2.79,9.21,9.21,0,0,0-.11,1.61V83l0,.14a7.64,7.64,0,0,0-.32,1.58,6.13,6.13,0,0,1-.49,2A22.25,22.25,0,0,1,314.84,95a14.28,14.28,0,0,1-3.06,4.83,29.37,29.37,0,0,1-3.61,3.24l-.2.16h-.13c-.16.12-.34.28-.53.45a3.69,3.69,0,0,1-2.21,1.19,8.11,8.11,0,0,0-2.66,1.89c-1.33,1.21-2.84,2.59-4.8,2.65l-.52,0-.06-.15a1.09,1.09,0,0,1-.26,0,1.16,1.16,0,0,1-1-.65l-1,.3.2-.92-.08,0-.28.1a2.52,2.52,0,0,1-1.92,0,4.1,4.1,0,0,0-.65-.09.42.42,0,0,0-.13.07,4.38,4.38,0,0,1-.92.53l-.07-.1a.89.89,0,0,1-.3.06h-.45l-.07-.14a9.23,9.23,0,0,0-1,.39A5.1,5.1,0,0,1,287.13,109.39Zm-.81-3.74a1.53,1.53,0,0,1,.86.26l.87.57-.84.62a.3.3,0,0,0-.07.07s.11.25.17.38a2.67,2.67,0,0,1,.15.34,5.65,5.65,0,0,0,1.13-.42,5.46,5.46,0,0,1,2.2-.63h.37a1.46,1.46,0,0,1,.93-.31,6.05,6.05,0,0,1,1,.13l.22.07a.58.58,0,0,0,.31.1,1.55,1.55,0,0,0,.52-.15,2.84,2.84,0,0,1,1-.22h.4l.17.26a1.58,1.58,0,0,1,.62.45,1.3,1.3,0,0,1,.64.57,1,1,0,0,1,.38-.07.94.94,0,0,1,.59.21,7.68,7.68,0,0,0,3.5-2.23,8.82,8.82,0,0,1,3.35-2.25l.19,0a2.38,2.38,0,0,0,1.34-.81,6.41,6.41,0,0,1,.92-.73l.22-.1a28.17,28.17,0,0,0,3.27-3,12.58,12.58,0,0,0,2.76-4.4l.06-.12a20.68,20.68,0,0,0,3-7.92l0-.14.07-.12a4.47,4.47,0,0,0,.38-1.58,9.34,9.34,0,0,1,.35-1.75,11.05,11.05,0,0,1,.12-1.72,4.57,4.57,0,0,0-.05-2.21l-.1-.22.05-.25a1.09,1.09,0,0,0,0-.2,1.45,1.45,0,0,1,.22-.86,75.05,75.05,0,0,0-2-11.84.49.49,0,0,0-.14-.25,1.58,1.58,0,0,1-.38-1.32c-1.42-3.52-3.19-7.83-6-11.17l-.25-.3v0a.84.84,0,0,1-.26-.27.93.93,0,0,1-.15-.51,37.36,37.36,0,0,0-6.32-5.54l-.23-.17,0-.29c0-.06-.08-.25-.25-.2l-.28.09-.27-.13a1.79,1.79,0,0,1-.53-.4h-.43l-.17-.1c-1.05-.6-2.16-1.2-3.29-1.8l-.13-.07-.72,0-.28-.3-.11,0h-.29l-.16-.09a5.21,5.21,0,0,0-2.43-.51,1,1,0,0,1-.53.26,1.07,1.07,0,0,1-.38.5l-.66.48v.18l-.77.05s-.17,0-.46.67a.69.69,0,0,1,0,.25l0,.32-.18.15a1.86,1.86,0,0,1-.75,1.23,3.76,3.76,0,0,1-.11.58.75.75,0,0,0,0,.62l.11.27-.1.27a1.09,1.09,0,0,1-.31.46c0,.16,0,.33,0,.47a1.75,1.75,0,0,0,.05.56l.28.45-.34.4c-.64.78-3.76,4.18-5,5.53l-.45.47a7.76,7.76,0,0,0-1,1.16l-.14.22-.19.06a39.2,39.2,0,0,0-3.52,4h0c-2.49,3.27-3.82,7-5.23,10.84a71.39,71.39,0,0,1-3.17,7.74l-.29.58h0c0,.19-.21.42-.22.61h0l-.05.44a18.37,18.37,0,0,0,.26,5c.06.45.13.9.18,1.34a1.35,1.35,0,0,0,.29.51,2.28,2.28,0,0,1,.57,1.39c.18.27.35.55.51.82a4.6,4.6,0,0,0,.67,1l.2.17,0,.17.11.07a1.39,1.39,0,0,1,.72.92,2.94,2.94,0,0,1,1.08,1.08,4.14,4.14,0,0,1,1.14.71l.18.14.22-.44.67.37a8.11,8.11,0,0,0,3.29.82c.52.05,1,.11,1.61.21a6.46,6.46,0,0,1,4.28-.52l.78.17-.24.76a6.12,6.12,0,0,1-1.29,2,7.69,7.69,0,0,0-.86,1.13c.4,0,.8,0,1.17,0h1.15l-.48,1a2.61,2.61,0,0,1-.17.28.8.8,0,0,0,.23,0l.91-.23v.94a1.48,1.48,0,0,1-.13.88,3.62,3.62,0,0,1-.53,2.08,2.94,2.94,0,0,0-.43,1.29v.08h0A2.69,2.69,0,0,1,286.32,105.65Zm5.95-15.46-.27-.06c-3.25-.71-6.22-2.43-9.63-5.59l-.08-.09a5.47,5.47,0,0,1-1.52-3.63,2.9,2.9,0,0,1,.29-1.41,1.29,1.29,0,0,0,.17-.62l0-.31.34-.51c2.74-7.53,7.9-13.29,13.36-19.37l.36-.41.5.25a8.46,8.46,0,0,1,2.38,2c.33.37.68.75,1,1.09.26,0,.67.15.8.84,0,0,0,0,0,0h0l.07.13A22.07,22.07,0,0,0,301.82,65c.36.46.73.94,1.08,1.43l.36.29.18.51a3.11,3.11,0,0,0,.26,1.25,6.32,6.32,0,0,1,.36,1.41c2,5.19-.79,10.88-2.09,13.09-2.19,3.12-5.09,4.68-7.9,6.18l-1.56.85Zm-8.86-6.68c3.09,2.86,5.77,4.45,8.64,5.14l1.33-.73c2.78-1.49,5.4-2.9,7.37-5.69,1.16-2,3.75-7.24,1.92-11.86l-.05-.21a4.69,4.69,0,0,0-.3-1.17,5.78,5.78,0,0,1-.33-1.27l-.07-.1c-.39-.58-.83-1.14-1.25-1.68a25.31,25.31,0,0,1-1.81-2.52,1.42,1.42,0,0,1-.24-.4l-.1-.09a13.6,13.6,0,0,1-1.47-1.47A9.84,9.84,0,0,0,295.57,60c-5.33,5.93-10.31,11.59-12.83,18.91l-.06.17a3.57,3.57,0,0,1-.27.87,1.49,1.49,0,0,0-.19.76v.13A4.09,4.09,0,0,0,283.41,83.51Z"/><path class="cls-2" d="M368.44,100c-.35-.75-.36-1.06-.73-1.93-.45-1.06-1.81-1.93-1.81-3.08v-.3c-.54-.78-.28-1.93-1-2.51a50.12,50.12,0,0,0-3-5.7c-.18-.39-.73-.58-.73-1.07-1.17-1.83-2.55-3.57-3.82-5.4a96.6,96.6,0,0,1-8.56-15c-.1-.2-.36-.3-.27-.48-1.55-3.87-3-7.83-4.19-11.89a.7.7,0,0,1-.18-.48c-.1,0-.1-.1,0-.2h.08l.19.49c0-.1-.09-.19-.19-.29l-.26-.78c0,.1.08.21.08.29v.2a2.62,2.62,0,0,1-.54-1.35l.36.58L342,47.88a26.16,26.16,0,0,1,1.74,3.57l-.46.21A17.6,17.6,0,0,0,340,45.47c-.09.09-.18.19-.27.19h-.18c.18.49-.37.68-.37,1.06a.5.5,0,0,0,.18.39l-.18.1c-.27,0-.36-.38-.63-.49l-.1.2c.18.38-.27.48-.54.48,0,.1,0,.1-.1.1s-.27-.1-.36-.1-.09,0-.09.1c-.27,1-.82.29-1.18,1h-.19c-.09,0-.09-.09-.09-.2v.11c0,.19-.09.57-.09.67-.36.1-.36.58-.73.58a.31.31,0,0,1-.27.1c-.09.48-.46.87-.56,1.45A.2.2,0,0,1,334,51l-.18,1.44c-.46.1-.36.67-.91.67-1.91,3.78-2,7.84-3,11.89-.64,2.22-1.37,4.44-1.92,6.76l-3.46,14.78c-1.09,4.73-2.36,9.56-2.36,14.49a5.16,5.16,0,0,0,.82,3.09c.45,0,.45.86,1,.86.09-.09.19-.19.28-.19.27,0,.46.19.73.19h.09v-.09c.18-.2.36-.67.54-.67s.19.19.19.28l.18-.28a.38.38,0,0,1,.27.38l.28-.19c.18.09.18.28.18.48l.36-.1c.09.1.27.49.46.49s.18.19.27.49c.18-.21.09-.39.27-.39a.4.4,0,0,1,.37.39v.57l.09-.09c.54,0,.27-.87.64-1.17h.18c.18,0,.18.58.27.69l.36-.21a.61.61,0,0,0,.09.39l.37-.09.09.29.28-.87c.36.19.27-.3.45-.39.55.09.27-.77.82-.87h.09c.09,0,.18.29.37.29a.32.32,0,0,0,.09-.19c.27.38.27.86.63,1.16,0,.28.1.34.19.62s.1-.45,0-.25V106c.09-.19,0,0,0-.37v.24c0-.19,0-.77.36-.77a.31.31,0,0,0,.27.1c.28-1.93,1.28-3.76,1.28-5.8,0-.19-.18-1,.09-1h.27a27.78,27.78,0,0,0,5.64.47,38.67,38.67,0,0,0,9.47-1.16c1.92,3.19,4.83,7.92,7.65,10.15a.34.34,0,0,1,.28-.09h.45a34.69,34.69,0,0,1-7.92-10.35l.36-.19c.91,1.35,1.73,2.7,2.65,4.06a66.45,66.45,0,0,0,4.55,5.7,4.93,4.93,0,0,1,1.18.78l.45-.49.19-.1.45.2a1.49,1.49,0,0,1-.18-.58c0-.39.09-.58.27-.68s.37.1.55.1v.1l.82.67c.36,0,.46.39.73.48-.09-.57-.73-1.06-.73-1.54a.2.2,0,0,1,0-.3c.64,0,.91.69,1.36,1-.09-.19-.17-.58.19-.58.54.68,0,0,.59.73l.09,0c-.33-.72.08.18-.05-.1l.73-.76v-.11c0-.38-.27-.68-.27-1.06a.68.68,0,0,1,.36-.58c.1-.19,0-.57.1-.57h.18v-.11a4.43,4.43,0,0,1,0-1.15c.27.19.45.58.73.58h.27c-.09-.29-.27-.78-.09-1.07a1.42,1.42,0,0,1,.94.63l.06-.43a.61.61,0,0,0,.45-.59c0-.18-.09-.48-.09-.76a.55.55,0,0,1,.27-.49ZM341.5,48.37h-.1l-.18-.29h.1Zm1.18,3v.19l-1.09-2.7a8.86,8.86,0,0,1,1.09,2.51M344,53.58c-.08-.09-.18-.19-.18-.29v-.2l.1.2a.39.39,0,0,0,.08.29m1.74,30.53c-1-1.16-6.19-11-6.56-12.57.55.69,5.83,11.11,6.56,12.57M347,86.43c-.64-.2-1.1-1.26-1.27-1.94A3.45,3.45,0,0,1,347,86.43m-1.27-.3-10,1.26c.35-.67.17-2,1.26-2-.18,0-.54,0-.54-.29,0-.68,2.73-9.37,3.1-10.53l.18.78-.09-.87Zm-5.46-8.89-.37-1.54v.48s.37,1,.37,1.06"/><path class="cls-3" d="M358.59,108.75l-.52-.41c-2.88-2.27-5.83-7-7.55-9.88a39.81,39.81,0,0,1-9.12,1.05,29.41,29.41,0,0,1-5.29-.39c0,.1,0,.19,0,.24a12.07,12.07,0,0,1-.72,3.64,17.13,17.13,0,0,0-.57,2.27l-.09.62h-.44l0,.11h0l0,.12-.3,2-.78-1.45H333l-.23-.72h0a1.63,1.63,0,0,1-.13-.36,2.15,2.15,0,0,1-.31-.57,1.07,1.07,0,0,1-.52.51,1,1,0,0,1-.37.4l-.83,2.58-.58-1.79-.1,0-.18-.19-.21.12-.1-.12a.88.88,0,0,1-.47.34l-1.18,1.2V107l-.22.25-.39-1.26a.29.29,0,0,1,0-.09,1,1,0,0,1-.31-.27l-.79.2v-.14l-.12.08-.79,1.24v-1.29a1.64,1.64,0,0,1-.66-.12l-.07.07-.37,0a1.34,1.34,0,0,1-1.17-.82l0,0h-.16l-.22-.3a5.79,5.79,0,0,1-1-3.52,57.91,57.91,0,0,1,2-13l3.84-16.4c.39-1.66.88-3.27,1.35-4.83.19-.66.39-1.32.58-2,.31-1.27.54-2.6.76-3.88a28,28,0,0,1,2.29-8.13l.2-.4h.35a2,2,0,0,1,.33-.4l.13-1.07h.22a3.59,3.59,0,0,1,.34-.87,2.2,2.2,0,0,0,.19-.45l.11-.59h.43l.09-.1h.16a1.68,1.68,0,0,1,.25-.29,1,1,0,0,0,0-.23v-.11h.64l-.28-.14a1.38,1.38,0,0,1,1.1-.74h0v0a.77.77,0,0,1,.56-.66h0a1.08,1.08,0,0,1,.4,0h.15l.45-.89.5.2a1.47,1.47,0,0,1,.1-.13l0,0-.34-.89h1l.45-.47.59.53a15.57,15.57,0,0,1,1.9,2.7l.29-.16,1.82,3.29-.15.09c0,.1.08.2.11.29l0,0,.16,0,.12.28h.11l0,.27.11.28a1,1,0,0,1,.12.47h0l.08.23h-.09c1,3.45,2.32,7.13,4.1,11.57l.06.15a1.52,1.52,0,0,1,.19.28A96.94,96.94,0,0,0,358,79.65c.48.7,1,1.4,1.5,2.09.79,1.08,1.6,2.19,2.33,3.32l.11.18v.21a.74.74,0,0,1,.17.14,2,2,0,0,1,.49.62,49,49,0,0,1,2.95,5.57,2.94,2.94,0,0,1,.71,1.64,2.38,2.38,0,0,0,.29.9l.13.18V95a2.75,2.75,0,0,0,.81,1.4,6,6,0,0,1,.94,1.39c.18.43.28.73.37,1a9.47,9.47,0,0,0,.35.9l.3.64-.49.26a1.6,1.6,0,0,0,0,.23,2.7,2.7,0,0,1,.05.43,1.28,1.28,0,0,1-.51,1l-.27,1.85-.57-.78-1,.07h0v.68h-.29a.64.64,0,0,1-.06.16l-.1.21-.2.11h0a.78.78,0,0,1,.09.2,2.09,2.09,0,0,1,.19.8v.4l-.58.61.13.28h0l.33.81-.84-.28.46,1-1.11-.68,0,0,0-.06-.47-.28.17,1-1.14-.35a1.32,1.32,0,0,1-.6-.42l0,0h-.16l-.37-.31.66,1.4-1.82-.78-.09.09.41.37h-.75l-.26.28-.33-.28h-.88Zm.74-2.45a4.47,4.47,0,0,1,.65.39l.09-.1.19-.09a1.28,1.28,0,0,1,.66-1.12l.15-.08h.18a1.71,1.71,0,0,1,.46.07l.1,0h.06a1,1,0,0,1,.18-.32l.22-.27h.35a1.69,1.69,0,0,1,1.14.47,1.07,1.07,0,0,1,.41-.08h.35l.24.3h0s0-.08,0-.12a2,2,0,0,1-.19-.8,1.36,1.36,0,0,1,.41-1,1,1,0,0,1,.21-.65,2.64,2.64,0,0,1,0-1l.24-1,.69.48a.83.83,0,0,1,.07-.13l.29-.47.52.15a2.59,2.59,0,0,1,.51.18v0a2.71,2.71,0,0,1-.07-.58,1.32,1.32,0,0,1,.15-.62c-.09-.23-.15-.42-.22-.63s-.17-.51-.33-.89a4.59,4.59,0,0,0-.73-1A3.8,3.8,0,0,1,365.17,95v-.09a4.13,4.13,0,0,1-.39-1.24c-.09-.47-.15-.76-.34-.91l-.14-.11-.08-.17a47.65,47.65,0,0,0-3-5.61.87.87,0,0,0-.21-.25,1.79,1.79,0,0,1-.59-1c-.68-1-1.41-2-2.18-3.1-.52-.7-1-1.41-1.54-2.13a98.48,98.48,0,0,1-8.63-15.1.94.94,0,0,1-.35-.69c-1.66-4.15-2.91-7.65-3.9-10.93l-.36.32.36-.32-.36.32h0a1.12,1.12,0,0,1-.36-.77v-.2h0c-.07-.12.35-.37.32-.52h0s-.58.11-.59.09h0l-.24-.79c0-.06,0-.11,0-.16l-.58.11-1.09-2.7.08,0-1-1.57-.69.43h-.19a1.06,1.06,0,0,1-.37-.07,1.24,1.24,0,0,1-.49.21.86.86,0,0,1-.49.15,1.3,1.3,0,0,1-1,.59l-.2.39h-.1v.44l-.46.09,0,0a1.24,1.24,0,0,1-.67.54,3.52,3.52,0,0,1-.18.39,2.28,2.28,0,0,0-.24.6l-.1.61h-.17L334.51,53l-.42.09s0,0,0,0a1.5,1.5,0,0,1-.63.58,27.34,27.34,0,0,0-2,7.41c-.22,1.31-.46,2.66-.79,4-.2.69-.4,1.35-.6,2-.46,1.54-.94,3.13-1.32,4.74l-3.84,16.4a56.92,56.92,0,0,0-2,12.7,4.75,4.75,0,0,0,.54,2.46,1.52,1.52,0,0,1,.59.6,1.35,1.35,0,0,1,.67.05,1.11,1.11,0,0,1,.89-.65l.14-.22.59.29.09,0,.08,0,.38.2a1,1,0,0,1,.32.25l.11,0,.29.28a2.47,2.47,0,0,1,.21.27l0,0,.16.06a.81.81,0,0,1,.52.09,1.19,1.19,0,0,1,.22-.23l.19-.16h.44a.77.77,0,0,1,.66.35l.27-.15.1-.31.23.12.1-.06v.09a.94.94,0,0,1,.19-.14l.11-.06a1.21,1.21,0,0,1,.89-.87v-1.47l1.32,1.85a2.15,2.15,0,0,1,.29.56c.13-.56.3-1.12.47-1.66a11.25,11.25,0,0,0,.65-3.22l0-.12a1.73,1.73,0,0,1,.21-1.38l.22-.25.76,0h.08a26,26,0,0,0,5.48.47A38.2,38.2,0,0,0,350.46,97l1.47-.78.37.54c.44.66.87,1.33,1.29,2s.88,1.38,1.35,2.07A62,62,0,0,0,359.33,106.3Zm-24.95-18,.65-1.23a3,3,0,0,0,.16-.56,3.32,3.32,0,0,1,.49-1.27.92.92,0,0,1,0-.15c0-.9,3.1-10.65,3.13-10.75l.33-1a10,10,0,0,1-.62-1.59l1.28-.62c.39.48,2.62,4.74,6.62,12.65l-.26.18a4.28,4.28,0,0,1,1.52,2.31L348,87.5l-1.26-.38a1.63,1.63,0,0,1-.58-.31Zm2.56-2.19c-.09,0-.15,0-.26.44l7.88-1-4.3-8.22-.74.09,0-.09a1.07,1.07,0,0,1-.06-.17c-1,3.18-2.26,7.41-2.32,7.95a.48.48,0,0,0-.18-.4Z"/><path class="cls-2" d="M401.58,55.7v-.09l-.55.09v.11Zm4.64-11.87h-.64c-.17-.29-1.18-.49-.63-1.17a1.08,1.08,0,0,0-.55.1c-.18-.19,0-.38-.09-.38h-.73c-.18,0-.18-.19-.18-.39a1.3,1.3,0,0,1,.46-.29c-.1-.19-.28-.48-.1-.68-3.09.58-6.19.2-9.28,1-9.57,2.51-20.49,1.16-30.59,2.32-1.46.48-3.56.77-3.92,2.22.55,0,1.19-.2,1.64.19.18.49-.64.58-1.09.68l.09.1c-.36.58-.45.77-1,1.06h.19l.18.2-.18.28c-.64-.28-.64.58-.73.78a2,2,0,0,1,.37.58c-.09.38-.37.28-.64.38a31.75,31.75,0,0,1-1.64,3l.09,1.55c-.09.29-.54.49-.27.87-.18.58-.82.48-1.19.58l.09.19c1.19-.29,9,.68,10.47,1.16,2.55.39,5.37.29,7.65,1.16.37,2.22.28,4,.55,6.28l.18.19a19.73,19.73,0,0,0,.82,4.55l-.09-1.75h-.18c-.46-1.35-.18-2.61-.46-3.86-.27-1.63-.18-3.77-.36-5.31.09-.29.18-.1.36,0l.36,6.18a2.55,2.55,0,0,0,.55,1.35.54.54,0,0,1-.27.67l.91,3c-.82.1-.45.87-.27,1.26v-.39c.45-.09-.1-.39.27-.68a2.53,2.53,0,0,1,.27,1.35c-.09.2-.36,0-.46.2.27,1.64,1,3.19,1.28,4.82l.18,23.38a55.76,55.76,0,0,0,1.82,5.9c.28-.77,1.19.18,1.28-.77.27,0,.55-.29.72,0,0,.86.83.09,1.1.77-.1.58.63,0,.73.58,0,.77.63,3.28,1.09,3.57.09-.58.19-3.76.64-4,.1.11.27,0,.36-.09-.09-.86,1-.47.73-1.45.36.1.63-.1.91.2V105l.46-.09c0-.1.08-.19-.09-.29l.17-.1.28.29c.18-.19.18-.48.46-.48.17.29.36.29.45.58,1.09.49.46-1.45,1.18-1.84.19.29.46.49.73.39v.29l.46-.78c.9-.08.55-1.25,1-1.73h.18c.18.1.09.29.09.39l.73-.29a1.69,1.69,0,0,0,.64-1.46c.64-.57.09-1.83.73-2.5a.3.3,0,0,1,.18.09l0-.11,0,.11,0-.11c.1,0,0,.21,0,.11.1-.38.18-.67-.1-.87a108.93,108.93,0,0,0-1.17-11.2l-.09-11.3c-.55-1.74-.28-3.67-.46-5.51-.28-3.47-1.1-6.95-1.55-10.24,1.73-.29,6.56-1.35,8.29-1.83l-6.28,1.26c1.09-1,5.82-1.26,7.19-1.84-1,.1-5,.87-5.93,1v-.1l-.64.1c-.08,0-.26-.1-.17-.2a24,24,0,0,1,2.46-.86,5.22,5.22,0,0,0,2.46-.79c.73-1.05,2-1.25,2.82-1.92l-.28-.1c1.28-.67,2.74-1.06,3.83-2.13.09-.28-.09-.57-.09-.86.36-.58,1.54-.87,1-1.65-.09-.28.09-.48.18-.67-1.18.29-.27-1.36-.91-1.55-1-1.25.82-1.45,1-2.31M393.39,57.45c-.28.09-.46.29-.73.19.09-.19.45-.19.73-.19"/><path class="cls-3" d="M384.92,111.77l-.93-.58c-.78-.48-1.26-2.75-1.4-3.77a.89.89,0,0,1-.57-.3,1.25,1.25,0,0,1-.16-.29,1.19,1.19,0,0,1-.78-.27,1.27,1.27,0,0,1-1,.27l-.67,1.57-.84-2.33a50.1,50.1,0,0,1-1.64-5.39l0-.15-.18-23.32a16.08,16.08,0,0,0-.6-2.23,18.91,18.91,0,0,1-.66-2.54l0-.24,0-.06h0a1.86,1.86,0,0,1-.15-1.68l0-.06-.48.07-.11-.43a19.91,19.91,0,0,1-.72-4l-.16-.16,0-.25c-.11-1-.16-1.91-.21-2.77-.05-1-.11-2-.26-3.06a20,20,0,0,0-4.45-.69c-.87-.08-1.78-.16-2.66-.29l-.12,0a59.13,59.13,0,0,0-9.5-1.18,3.35,3.35,0,0,0-.56,0l-.57.14-.75-1.5.86-.23A1.67,1.67,0,0,1,356,56l.15,0a1.38,1.38,0,0,1,.35-.85l-.09-1.55.13-.21a21.22,21.22,0,0,0,1.3-2.34l.43-.85.1,0-.18-.19.21-.45c.15-.74.47-1.15,1-1.24l-.09-.36a1,1,0,0,0,.42-.32l-.32-.33H359l.06-.26,0,0h0l.15-.6c.4-1.59,2.16-2.08,3.57-2.49l.83-.24.14,0c4-.46,8.21-.53,12.27-.59,6.15-.1,12.51-.21,18.22-1.7a25,25,0,0,1,5.22-.6,30.92,30.92,0,0,0,4.12-.38l2.17-.41-1.32,1.42.17.33.25.28h1.56l-.81,1h0l.2.14h1.26l-.18.88a2.13,2.13,0,0,1-.93,1.2,4.28,4.28,0,0,0-.36.31.25.25,0,0,1,.05.07,1.47,1.47,0,0,1,.5,1.36l1.15-.28L406.79,48a1.62,1.62,0,0,1-.1.18h0c.47,1-.41,1.62-.76,1.88l-.2.16a1.59,1.59,0,0,1,0,.87l-.05.17-.13.13a9,9,0,0,1-2.85,1.71l-.17.07-.58.48a6,6,0,0,1-1.23.73,3.76,3.76,0,0,0-1.37.94c.39-.07.72-.12.95-.14v-.1l2-.35v1.48l-.6.2-1,.2a8,8,0,0,1-1,.26l.07.3c-1.55.43-5.54,1.32-7.66,1.73.15,1,.33,2,.52,3.06.37,2.13.76,4.33.94,6.53.06.67.07,1.36.08,2a11.42,11.42,0,0,0,.34,3.31l0,.22.09,11.24c.42,2.72.95,6.79,1.16,11a1.26,1.26,0,0,1,.16,1v.09a.89.89,0,0,1-.14.47L395,98.92l-.19-.21a2.59,2.59,0,0,1-.37,1.42,2.27,2.27,0,0,1-1,1.79l-.12.06-.88.35a1.55,1.55,0,0,1-.92,1.24l-1.66,2.83v-1.2a1.1,1.1,0,0,1-1.47.34l-.24-.11h0v.1h-.1l-.27.28-.09-.09v1.34l-1-1.09a1.46,1.46,0,0,1-.57.5l0,0,0,.27-.26.28a1.26,1.26,0,0,1-.41.26,24.53,24.53,0,0,0-.29,2.48c0,.41-.05.74-.08.9ZM383.17,106c.61.13.73.29.78.57l.06.41a.45.45,0,0,0,0,.11c.14-.69.35-1,.7-1.17h0a1.41,1.41,0,0,1,.67-.71l-.33-1.14,1.27.27h0l1.35-.8.12.13a.91.91,0,0,1,.49-.13h.41l.11.18a1.66,1.66,0,0,1,.77-1.35l.59-.32.32.49.18-.32.37,0s0-.23.07-.37a2.12,2.12,0,0,1,.47-1.14l.22-.23h.68l.17.09.12.08a1.08,1.08,0,0,0,.25-.8v-.32l.24-.22c.1-.08.11-.45.13-.71a2.64,2.64,0,0,1,.46-1.64V96.6a110.46,110.46,0,0,0-1.17-11.13v-.11l-.09-11.19a12.75,12.75,0,0,1-.38-3.62c0-.67,0-1.3-.08-1.92-.17-2.15-.55-4.31-.92-6.41-.22-1.26-.45-2.56-.63-3.81l-.09-.7.7-.12.76-.14.07-.13a1.12,1.12,0,0,1,.92-.58l-.05-.1.48-.58a5.07,5.07,0,0,1,1.57-.6,4.25,4.25,0,0,0,.95-.3l.16-.08h.18a4.42,4.42,0,0,0,2-.62,4.33,4.33,0,0,1,1.6-1.22l-.34-.13,1.44-.76c.4-.21.81-.39,1.23-.58a8.57,8.57,0,0,0,2.19-1.21v0a1.91,1.91,0,0,1-.08-.53V49.8l.11-.18a2.59,2.59,0,0,1,.73-.71c.07-.06.17-.13.24-.2l-.05-.13a1.52,1.52,0,0,1-.06-.34l-.11-.11a1.6,1.6,0,0,1-.34-1.24,1,1,0,0,0,0-.17l-.1-.12a1.78,1.78,0,0,1-.45-1.29,1.7,1.7,0,0,1,.7-1.1h0a2,2,0,0,1-.63-.53h0l-.39-.42-.11-.15h-.17c-.21,0-.91-.08-.91-1.12v-.06c-1,.12-2.08.17-3.09.21a24.24,24.24,0,0,0-4.92.56c-5.88,1.54-12.33,1.64-18.57,1.75-4,.06-8.12.13-12,.58l-.81.24a9.18,9.18,0,0,0-1.7.59,1.54,1.54,0,0,1,.56.31l.14.12.07.18a1,1,0,0,1-.06.88,1.58,1.58,0,0,1-1.09.66,5.24,5.24,0,0,1-.37.55l.11.11L360.07,50l-.06,0a1.3,1.3,0,0,1,.08.17l.11.23-.06.24a1.08,1.08,0,0,1-.86.85l-.14.27c-.4.78-.77,1.53-1.25,2.28l.09,1.45,0,.13a1.65,1.65,0,0,1-.23.42l.07.1,0,.14a60.32,60.32,0,0,1,8.78,1.2c.81.12,1.67.19,2.51.26a19.67,19.67,0,0,1,5.18.91.82.82,0,0,1,.93.13l.37.19,0,.43.36,6.19a1.83,1.83,0,0,0,.42,1l.06.09a1.29,1.29,0,0,1,0,1,1.14,1.14,0,0,1-.1.19l1,3.41h0a2.1,2.1,0,0,1,.06,1.08l0,.15a.86.86,0,0,1-.28.34c.13.58.32,1.15.51,1.76a18,18,0,0,1,.65,2.48v.12l.18,23.3a45.83,45.83,0,0,0,1.5,4.92H380l0-.4.68,0a1.07,1.07,0,0,1,1.35.35l.07.11A1.18,1.18,0,0,1,383.17,106Z"/><path class="cls-2" d="M175.16,128.32c2.82,0,5.2,2,5.2,6,0,5-3,6.52-5.71,6.52H172l-.84,7.54H167.8l2.2-20Zm-2.83,9.34h1.41a2.91,2.91,0,0,0,3.15-3.2,2.75,2.75,0,0,0-3.08-3H173Z"/><path class="cls-2" d="M175.16,128.32v.17a4.83,4.83,0,0,1,3.54,1.43,6.14,6.14,0,0,1,1.5,4.36,6.48,6.48,0,0,1-1.79,5,5.47,5.47,0,0,1-3.76,1.33h-2.81l0,.15-.83,7.54.16,0v-.17H167.8v.17l.16,0,2.2-20-.16,0v.17h5.16v-.33h-5.31l0,.14-2.2,20,0,.19h3.69l0-.15.83-7.54-.16,0V141h2.66a5.79,5.79,0,0,0,4-1.42,6.8,6.8,0,0,0,1.9-5.26,6.46,6.46,0,0,0-1.59-4.59,5.13,5.13,0,0,0-3.78-1.53v.16m-2.83,9.34v.16h1.41a3.21,3.21,0,0,0,2.54-1,3.57,3.57,0,0,0,.78-2.37,3.18,3.18,0,0,0-.78-2.23,3.26,3.26,0,0,0-2.47-.9h-.95l0,.15-.67,6.16,0,.18h.18v-.16l.17,0,.67-6.17-.17,0v.17h.81a2.93,2.93,0,0,1,2.23.8,2.87,2.87,0,0,1,.68,2,3.23,3.23,0,0,1-.69,2.15,2.89,2.89,0,0,1-2.29.88h-1.41v.17l.17,0-.17,0"/><path class="cls-2" d="M190.82,148.34H187.7l.14-1.23a4.18,4.18,0,0,1-3,1.49c-2.13,0-3.68-2.37-3.68-5.72,0-3.88,1.94-8.1,7.61-8.1a13.31,13.31,0,0,1,3.54.44Zm-2-10.21c-3.89-.5-4.46,3.32-4.46,5s.57,2.56,1.52,2.56a3.27,3.27,0,0,0,2.25-1.17Z"/><path class="cls-2" d="M190.82,148.34v-.17H187.7v.17l.16,0,.14-1.24.05-.47-.33.34a4,4,0,0,1-2.91,1.45,3,3,0,0,1-2.5-1.53,7.52,7.52,0,0,1-1-4,8.81,8.81,0,0,1,1.65-5.4,6.89,6.89,0,0,1,5.8-2.53,13,13,0,0,1,3.5.43l0-.16-.17,0-1.45,13.12.16,0v0l.17,0,1.45-13.12,0-.14-.14,0a13.2,13.2,0,0,0-3.58-.44,7.21,7.21,0,0,0-6.06,2.66,9.13,9.13,0,0,0-1.72,5.6,7.78,7.78,0,0,0,1.07,4.21,3.33,3.33,0,0,0,2.78,1.68,4.31,4.31,0,0,0,3.14-1.55l-.11-.11-.17,0-.14,1.23,0,.19H191l0-.15-.17,0m-2-10.21,0-.17a5.6,5.6,0,0,0-.69-.05,3.47,3.47,0,0,0-3.28,2,7.38,7.38,0,0,0-.68,3.15,3.79,3.79,0,0,0,.43,2,1.44,1.44,0,0,0,1.26.76,3.49,3.49,0,0,0,2.37-1.23l0,0v-.06l.7-6.34V138l-.16,0,0,.17-.16,0-.7,6.34.17,0-.12-.12a3.07,3.07,0,0,1-2.13,1.12,1.08,1.08,0,0,1-1-.59,3.46,3.46,0,0,1-.39-1.8,7,7,0,0,1,.65-3,3.11,3.11,0,0,1,3-1.83,5,5,0,0,1,.65,0l0-.16-.16,0,.16,0"/><path class="cls-2" d="M196.79,148.34h-3.13L195.15,135h3.12Zm1.9-17a1.67,1.67,0,1,1-1.62-2.06,1.86,1.86,0,0,1,1.62,2.06"/><path class="cls-2" d="M196.79,148.34v-.17h-3.13v.17h.17L195.31,135l-.16,0v.17h3.12V135h-.16l-1.48,13.32.16,0v0H197L198.43,135l0-.18H195V135l-1.49,13.32,0,.18h3.46v-.15h-.16m1.9-17h-.17a2.22,2.22,0,0,1-.43,1.35,1.23,1.23,0,0,1-2,0,2.16,2.16,0,0,1-.44-1.35,2.19,2.19,0,0,1,.44-1.36,1.25,1.25,0,0,1,2,0,2.25,2.25,0,0,1,.43,1.36h.33a2.55,2.55,0,0,0-.5-1.56,1.64,1.64,0,0,0-1.28-.66,2.27,2.27,0,0,0,0,4.44,1.64,1.64,0,0,0,1.28-.66,2.57,2.57,0,0,0,.5-1.56h-.16"/><path class="cls-2" d="M204.13,136.51a4.92,4.92,0,0,1,3.59-1.73c2.43,0,3.07,2.58,2.77,5.31l-.9,8.25h-3.12l.87-8c.14-1.3-.09-2.68-.92-2.68s-1.57.62-2.64,2.06l-.95,8.57h-3.12L201.19,135h3.12Z"/><path class="cls-2" d="M204.13,136.51l.11.12a4.79,4.79,0,0,1,3.48-1.69,2.25,2.25,0,0,1,2.05,1.14,5.54,5.54,0,0,1,.63,2.81c0,.39,0,.78-.07,1.18l-.9,8.25.16,0v-.17h-3.12v.17l.16,0,.88-8c0-.24,0-.48,0-.71a3.77,3.77,0,0,0-.24-1.45,1,1,0,0,0-.89-.7c-.82,0-1.7.68-2.77,2.12l0,0v0l-1,8.57.16,0v-.17h-3.12v.17l.17,0L201.36,135l-.17,0v.16h3.12V135l-.16,0-.19,1.49-.06.47.34-.33-.11-.12.16,0,.19-1.49,0-.19H201V135l-1.48,13.32,0,.19H203l0-.15.95-8.57-.17,0,.13.1c1.06-1.43,1.89-2,2.51-2,.25,0,.44.16.58.5a3.21,3.21,0,0,1,.21,1.32c0,.22,0,.44,0,.67l-.88,7.95,0,.19h3.46l0-.15.9-8.25c0-.41.07-.82.07-1.22a5.89,5.89,0,0,0-.67-3,2.6,2.6,0,0,0-2.34-1.3,5.11,5.11,0,0,0-3.71,1.78l.12.12.16,0-.16,0"/><path class="cls-2" d="M217.76,135h2.31l-.42,2.94h-2.31l-.6,4.31c-.21,1.5,0,2.79.86,2.79a3.67,3.67,0,0,0,1.8-.79v3.49a4.79,4.79,0,0,1-2.69.85c-2.59,0-3.58-2.78-3.19-5.57l.74-5.08h-2.13l.39-2.94h2.14l.37-2.81h3.17Z"/><path class="cls-2" d="M217.76,135v.17h2.31V135l-.17,0-.41,2.94.16,0v-.16H217.2l0,.14-.61,4.31a8,8,0,0,0-.08,1.06,3.26,3.26,0,0,0,.24,1.33,1,1,0,0,0,.87.59,3.8,3.8,0,0,0,1.89-.82l-.09-.14h-.17v3.49h.17l-.09-.14a4.59,4.59,0,0,1-2.6.83,2.69,2.69,0,0,1-2.33-1.25,5.44,5.44,0,0,1-.77-3,7.37,7.37,0,0,1,.08-1.14h0l.74-5.07,0-.19h-2.33V138l.17,0,.39-2.95-.17,0v.17h2.28l0-.15.37-2.81-.16,0v.17h3.17v-.17l-.17,0-.44,2.81,0,.19h.2V135l.16,0,.44-2.81,0-.19h-3.51l0,.14-.37,2.81.17,0v-.16h-2.28l0,.14-.39,2.94,0,.19h2.32V138l-.16,0-.74,5.07h0a8,8,0,0,0-.09,1.19,5.91,5.91,0,0,0,.83,3.18,3,3,0,0,0,2.61,1.4,5,5,0,0,0,2.77-.88l.08,0V144l-.25.16a3.68,3.68,0,0,1-1.71.77.62.62,0,0,1-.57-.4,2.66,2.66,0,0,1-.2-1.19,7.36,7.36,0,0,1,.07-1l.6-4.31-.16,0v.17h2.46l0-.14.41-2.94,0-.19h-2.5V135l.16,0-.16,0"/><path class="cls-2" d="M224,148.34H220.9L222.38,135h3.13Zm1.9-17a1.67,1.67,0,1,1-1.62-2.06,1.86,1.86,0,0,1,1.62,2.06"/><path class="cls-2" d="M231.36,136.51a4.92,4.92,0,0,1,3.59-1.73c2.43,0,3.08,2.58,2.78,5.31l-.91,8.25H233.7l.88-8c.14-1.3-.1-2.68-.93-2.68s-1.57.62-2.64,2.06l-.94,8.57h-3.13L228.42,135h3.13Z"/><path class="cls-2" d="M231.36,136.51l.12.12a4.77,4.77,0,0,1,3.47-1.69,2.25,2.25,0,0,1,2.05,1.14,5.54,5.54,0,0,1,.63,2.81c0,.39,0,.78-.07,1.18l-.9,8.25.16,0v-.17H233.7v.17l.16,0,.88-8h0a5.48,5.48,0,0,0,0-.7,3.8,3.8,0,0,0-.24-1.45,1,1,0,0,0-.89-.7c-.82,0-1.69.68-2.77,2.12l0,0v0l-.95,8.57.17,0v-.17h-3.13v.17l.17,0L228.59,135l-.17,0v.16h3.13V135l-.17,0-.18,1.49-.06.47.34-.33-.12-.12.17,0,.18-1.49,0-.19h-3.45l0,.15-1.48,13.32,0,.19h3.45l0-.15,1-8.57-.17,0,.14.1c1-1.43,1.89-2,2.5-2,.26,0,.44.16.59.5a3.58,3.58,0,0,1,.21,1.32,5,5,0,0,1,0,.67h0l-.88,7.95,0,.19H237l0-.15.9-8.25a10.1,10.1,0,0,0,.07-1.22,5.89,5.89,0,0,0-.67-3,2.6,2.6,0,0,0-2.34-1.3,5.09,5.09,0,0,0-3.7,1.78l.11.12.17,0-.17,0"/><path class="cls-2" d="M250.43,138h-1.69a5.64,5.64,0,0,1,.39,2.11c0,2.38-1.39,4.87-4.39,4.87-1.51,0-1.9.15-1.9.71,0,1.52,6.34,0,6.34,5.1,0,2.21-1.14,4.35-5.42,4.35-4,0-5-1.82-5-3.29,0-1.29.84-2.29,2.6-3a3,3,0,0,1-1.46-2.47,2.41,2.41,0,0,1,.79-1.79,3.31,3.31,0,0,1,1.34-.67A4.45,4.45,0,0,1,240.2,140a4.78,4.78,0,0,1,4.65-5h5.88Zm-8.93,13.21c0,.93.69,1.38,2.31,1.38s2.45-.36,2.45-1.26-1-1.15-2.85-1.68c-1.43.23-1.91.83-1.91,1.56m3.28-13.47c-1.11,0-1.71,1-1.71,2.93,0,1.18.55,1.85,1.46,1.85,1.36,0,1.71-1.5,1.71-2.88,0-1.17-.56-1.9-1.46-1.9"/><path class="cls-2" d="M250.43,138v-.17H248.5l.08.23a5.63,5.63,0,0,1-.65,5.28,3.92,3.92,0,0,1-3.19,1.48,5.11,5.11,0,0,0-1.58.15.78.78,0,0,0-.38.28.82.82,0,0,0-.11.44.72.72,0,0,0,.35.59,4.73,4.73,0,0,0,1.52.46,8.56,8.56,0,0,1,3,1,3.33,3.33,0,0,1,1.52,3.07,3.89,3.89,0,0,1-1,2.88,5.74,5.74,0,0,1-4.2,1.3,5.91,5.91,0,0,1-3.9-1,2.64,2.64,0,0,1-.93-2.07c0-1.21.76-2.14,2.49-2.84l.31-.12-.29-.17a2.83,2.83,0,0,1-1.38-2.33,2.27,2.27,0,0,1,.73-1.66,3.26,3.26,0,0,1,1.29-.64l.3-.1-.25-.19a4.28,4.28,0,0,1-1.76-3.71,5.24,5.24,0,0,1,1.16-3.32,4.2,4.2,0,0,1,3.32-1.54h5.88V135h-.17l-.29,2.93.16,0v0l.16,0,.3-2.94,0-.18h-6.06a4.53,4.53,0,0,0-3.57,1.65A5.66,5.66,0,0,0,240,140a4.63,4.63,0,0,0,1.9,4l.1-.13-.05-.16a3.62,3.62,0,0,0-1.4.71,2.56,2.56,0,0,0-.85,1.91,3.13,3.13,0,0,0,1.54,2.61l.09-.14-.07-.16c-1.78.72-2.7,1.78-2.69,3.15a3,3,0,0,0,1.05,2.32,6.19,6.19,0,0,0,4.11,1.13,6.05,6.05,0,0,0,4.43-1.39,4.25,4.25,0,0,0,1.15-3.12,3.82,3.82,0,0,0-1-2.84,6.6,6.6,0,0,0-3.43-1.48,9.76,9.76,0,0,1-1.4-.33,1.34,1.34,0,0,1-.37-.21.38.38,0,0,1-.11-.24.55.55,0,0,1,.06-.26c.05-.08.17-.16.44-.21a7.54,7.54,0,0,1,1.24-.07,4.21,4.21,0,0,0,3.45-1.61,5.57,5.57,0,0,0,1.11-3.43,5.78,5.78,0,0,0-.41-2.17l-.15.06v.17h1.84V138l-.16,0m-8.93,13.21h-.17a1.29,1.29,0,0,0,.63,1.18,3.65,3.65,0,0,0,1.85.36,4.37,4.37,0,0,0,2-.31,1.17,1.17,0,0,0,.66-1.11,1.11,1.11,0,0,0-.22-.71,2,2,0,0,0-1-.63c-.46-.16-1-.3-1.73-.5h-.07a3,3,0,0,0-1.58.63,1.41,1.41,0,0,0-.48,1.09h.33a1,1,0,0,1,.37-.84,2.69,2.69,0,0,1,1.41-.55l0-.17,0,.16a17.91,17.91,0,0,1,2.1.65,1.36,1.36,0,0,1,.48.35,1,1,0,0,1,.15.52.83.83,0,0,1-.48.82,4.26,4.26,0,0,1-1.81.27,3.39,3.39,0,0,1-1.68-.31,1,1,0,0,1-.47-.9h-.16m3.28-13.47v-.17a1.59,1.59,0,0,0-1.42.83,4.61,4.61,0,0,0-.46,2.27,2.28,2.28,0,0,0,.43,1.47,1.46,1.46,0,0,0,1.2.55,1.62,1.62,0,0,0,1.51-1,4.8,4.8,0,0,0,.36-2,2.44,2.44,0,0,0-.42-1.49,1.47,1.47,0,0,0-1.2-.58v.33a1.13,1.13,0,0,1,.94.45,2.13,2.13,0,0,1,.35,1.29,4.66,4.66,0,0,1-.33,1.89,1.27,1.27,0,0,1-1.21.83,1.16,1.16,0,0,1-.94-.43,2,2,0,0,1-.36-1.26,4.27,4.27,0,0,1,.42-2.1,1.25,1.25,0,0,1,1.13-.67v-.16"/><path class="cls-2" d="M265.19,128.32c6.3,0,8.15,5.4,8.15,9.75,0,6-3.25,10.27-7.45,10.27h-8.15l2.2-20ZM261.47,145h3.14c3.73,0,5.26-3.52,5.26-7s-1.86-6.34-5.33-6.34h-1.62Z"/><path class="cls-2" d="M265.19,128.32v.17a7.07,7.07,0,0,1,6.3,3.17,11.89,11.89,0,0,1,1.68,6.41,12.31,12.31,0,0,1-2.11,7.27,6.4,6.4,0,0,1-5.17,2.83h-8.15v.17l.17,0,2.19-20-.16,0v.17h5.25v-.33h-5.4l0,.14-2.19,20,0,.19h8.33a6.74,6.74,0,0,0,5.43-3,12.65,12.65,0,0,0,2.18-7.47,12.1,12.1,0,0,0-1.74-6.59,7.36,7.36,0,0,0-6.57-3.32v.16M261.47,145v.17h3.14a4.73,4.73,0,0,0,4.16-2.27A9,9,0,0,0,270,138a7.43,7.43,0,0,0-1.39-4.59,5,5,0,0,0-4.1-1.92h-1.76l0,.15L261.3,145l0,.19h.19V145l.16,0,1.46-13.32-.17,0v.17h1.62a4.66,4.66,0,0,1,3.83,1.78A7.1,7.1,0,0,1,269.7,138a8.84,8.84,0,0,1-1.2,4.7,4.42,4.42,0,0,1-3.89,2.12h-3.14V145l.16,0-.16,0"/><path class="cls-2" d="M280.26,148.6c-3,0-5.3-2.82-5.3-6.42,0-4.05,2.72-7.4,6.06-7.4,3,0,5.2,2.47,5.2,6.28,0,4.26-2.59,7.54-6,7.54m.62-10.59c-2,0-2.68,3.05-2.68,4.4,0,2,1.15,3,2.08,3,1.8,0,2.71-2.58,2.71-4.44s-.84-2.93-2.11-2.93"/><path class="cls-2" d="M280.26,148.6v-.16a4.7,4.7,0,0,1-3.65-1.8,7.06,7.06,0,0,1-1.49-4.46,8.05,8.05,0,0,1,1.75-5.11A5.39,5.39,0,0,1,281,135c2.9,0,5,2.36,5,6.11a8.53,8.53,0,0,1-1.68,5.27,5.23,5.23,0,0,1-4.12,2.11v.33a5.56,5.56,0,0,0,4.38-2.24,8.85,8.85,0,0,0,1.75-5.47,7.17,7.17,0,0,0-1.51-4.68,5,5,0,0,0-3.86-1.76,5.69,5.69,0,0,0-4.41,2.24,8.38,8.38,0,0,0-1.82,5.32,7.32,7.32,0,0,0,1.57,4.67,5,5,0,0,0,3.9,1.92v-.17m.62-10.59v-.17a2.6,2.6,0,0,0-2.26,1.8,7.31,7.31,0,0,0-.59,2.77,3.62,3.62,0,0,0,.73,2.35,2,2,0,0,0,1.52.78,2.56,2.56,0,0,0,2.18-1.61,6.92,6.92,0,0,0,.69-3,3.76,3.76,0,0,0-.61-2.22,2,2,0,0,0-1.66-.88v.34a1.66,1.66,0,0,1,1.39.73,3.45,3.45,0,0,1,.55,2,6.52,6.52,0,0,1-.66,2.84,2.23,2.23,0,0,1-1.88,1.43c-.81,0-1.92-.83-1.92-2.8a7,7,0,0,1,.57-2.64c.41-.91,1-1.6,1.95-1.59V138"/><path class="cls-2" d="M292.29,136.51a4.92,4.92,0,0,1,3.58-1.73c2.43,0,3.08,2.58,2.78,5.31l-.9,8.25h-3.12l.88-8c.13-1.3-.1-2.68-.93-2.68s-1.58.62-2.64,2.06l-.95,8.57h-3.12L289.35,135h3.12Z"/><path class="cls-2" d="M292.29,136.51l.11.12a4.79,4.79,0,0,1,3.47-1.69,2.25,2.25,0,0,1,2.06,1.14,5.56,5.56,0,0,1,.62,2.82q0,.57-.06,1.17l-.91,8.25.17,0v-.17h-3.12v.17l.16,0,.88-8h0a5.32,5.32,0,0,0,0-.69,3.86,3.86,0,0,0-.24-1.46,1,1,0,0,0-.89-.7c-.82,0-1.7.68-2.77,2.12l0,0v0l-.94,8.57.16,0v-.17h-3.12v.17l.16,0L289.52,135l-.17,0v.16h3.12V135l-.16,0-.19,1.49-.06.47.34-.33-.11-.12.16,0,.19-1.49,0-.19H289.2V135l-1.49,13.32,0,.19h3.46l0-.15.94-8.57-.16,0,.13.1c1.05-1.43,1.89-2,2.51-2,.26,0,.44.16.59.5a3.42,3.42,0,0,1,.2,1.33q0,.33,0,.66h0l-.88,7.95,0,.19h3.46v-.15l.91-8.25c0-.41.06-.82.06-1.21a5.83,5.83,0,0,0-.67-3,2.59,2.59,0,0,0-2.34-1.3,5.11,5.11,0,0,0-3.7,1.78l.12.12.16,0-.16,0"/><path class="cls-2" d="M303.9,142.23c-.16,2.18.91,3.44,2.41,3.44a9.45,9.45,0,0,0,3.89-1.35l-.56,3.31a8.82,8.82,0,0,1-3.66,1c-3.19,0-5.22-2.55-5.22-6.48,0-4.08,2.52-7.34,5.69-7.34s5.06,3.2,4.32,7.45Zm4-2.29c.19-1.43-.44-2.43-1.5-2.43s-1.72.76-2.18,2.43Z"/><path class="cls-2" d="M303.9,142.23h-.16a3.31,3.31,0,0,0,0,.44,3.56,3.56,0,0,0,.72,2.33,2.38,2.38,0,0,0,1.87.85,9.7,9.7,0,0,0,4-1.37l-.07-.15-.17,0-.55,3.32.16,0-.07-.15a8.7,8.7,0,0,1-3.59,1,4.55,4.55,0,0,1-3.68-1.71,7.25,7.25,0,0,1-1.38-4.61,8.35,8.35,0,0,1,1.62-5.1,5,5,0,0,1,3.91-2.07,3.86,3.86,0,0,1,3.16,1.5,6.35,6.35,0,0,1,1.16,3.93,10.59,10.59,0,0,1-.16,1.82l.16,0v-.16h-7v.15h.16v.17h7l0-.14a11.32,11.32,0,0,0,.17-1.88,6.68,6.68,0,0,0-1.24-4.14,4.19,4.19,0,0,0-3.42-1.62,5.27,5.27,0,0,0-4.17,2.2,8.65,8.65,0,0,0-1.69,5.3,7.66,7.66,0,0,0,1.45,4.82,4.89,4.89,0,0,0,3.94,1.83,8.89,8.89,0,0,0,3.73-1l.08,0v-.09l.56-3.31.05-.33-.29.15a9.38,9.38,0,0,1-3.81,1.34,2.08,2.08,0,0,1-1.61-.73,3.25,3.25,0,0,1-.65-2.12c0-.13,0-.27,0-.42h-.17v0m4-2.29.17,0a4.36,4.36,0,0,0,0-.51,2.46,2.46,0,0,0-.45-1.51,1.52,1.52,0,0,0-1.25-.59A1.81,1.81,0,0,0,305,138a4.72,4.72,0,0,0-.92,1.91l-.05.21h4l0-.15-.17,0v-.16H304.2v.16l.16.05a4.54,4.54,0,0,1,.84-1.78,1.5,1.5,0,0,1,1.18-.53,1.21,1.21,0,0,1,1,.47,2.07,2.07,0,0,1,.38,1.3,3.83,3.83,0,0,1,0,.47l.16,0v0"/><path class="cls-1" d="M326.78,128.32c4,0,5.33,3.56,5.33,6s-1.11,4.67-3.52,5.22v.06a4,4,0,0,1,1.67,2.35l2.43,6.37H329l-1.51-4.05c-1.34-3.61-1.71-4-3.35-4h-.72l-.88,8.1h-3.36l2.2-20Zm-3,8.81h1.66c2.27,0,3.22-1.44,3.22-2.9a2.39,2.39,0,0,0-2.64-2.56h-1.64Z"/><path class="cls-1" d="M326.78,128.32v.17a4.64,4.64,0,0,1,4,2,7,7,0,0,1,1.13,3.84c0,2.39-1.08,4.53-3.4,5.06l-.13,0v.29l.09.05A3.81,3.81,0,0,1,330.1,142l.16-.06-.16.06,2.43,6.36.16,0v-.17H329v.17l.16-.06-1.51-4.05a12.76,12.76,0,0,0-1.6-3.42,2.13,2.13,0,0,0-1.91-.73h-.87v.14l-.88,8.1.16,0v-.17h-3.36v.17h.17l2.2-20-.17,0v.17h5.41v-.33h-5.56v.14l-2.2,20,0,.18h3.69l0-.15.88-8.09-.17,0v.17h.72a1.82,1.82,0,0,1,1.66.61,12.65,12.65,0,0,1,1.54,3.33l1.5,4,0,.11h4.06l-.09-.22-2.43-6.37h0a4.19,4.19,0,0,0-1.74-2.44l-.08.15h.16v-.06h-.16l0,.17c2.51-.58,3.66-2.92,3.66-5.39a7.31,7.31,0,0,0-1.19-4,5,5,0,0,0-4.31-2.15v.16m-3,8.81v.17h1.66a3.43,3.43,0,0,0,2.58-1,3,3,0,0,0,.8-2.11,2.71,2.71,0,0,0-.74-2,2.91,2.91,0,0,0-2.06-.73h-1.79v.15l-.61,5.46,0,.19h.19v-.17l.16,0,.6-5.46-.16,0v.17H326a2.56,2.56,0,0,1,1.83.63,2.37,2.37,0,0,1,.64,1.76,2.66,2.66,0,0,1-.71,1.88,3.13,3.13,0,0,1-2.34.86h-1.66v.16l.16,0-.16,0"/><polygon class="cls-1" points="337.52 148.34 334.17 148.34 336.39 128.32 339.74 128.32 337.52 148.34"/><polyline class="cls-1" points="337.52 148.34 337.52 148.17 334.17 148.17 334.17 148.34 334.33 148.36 336.55 128.34 336.39 128.32 336.39 128.49 339.74 128.49 339.74 128.32 339.58 128.31 337.36 148.32 337.52 148.34 337.52 148.17 337.52 148.34 337.69 148.36 339.91 128.34 339.93 128.16 339.74 128.16 336.39 128.16 336.24 128.16 336.23 128.31 334 148.32 333.98 148.51 334.17 148.51 337.52 148.51 337.67 148.51 337.69 148.36 337.52 148.34"/><path class="cls-1" d="M356.78,132.49a12.34,12.34,0,0,0-4.19-.73c-4.63,0-7.89,3.08-7.89,7.66,0,3.7,2.19,5.48,5,5.48a6.76,6.76,0,0,0,2.36-.38l.39-3.55h-2.89l.34-3.17h6.26L355,148a19.68,19.68,0,0,1-4.91.58c-6.57,0-8.91-4.66-8.91-9,0-5,3.08-11.5,11.37-11.5a13.29,13.29,0,0,1,4.58.73Z"/><path class="cls-1" d="M356.78,132.49l.05-.15a12.14,12.14,0,0,0-4.24-.75,8.24,8.24,0,0,0-5.8,2.16,7.69,7.69,0,0,0-2.26,5.67,5.8,5.8,0,0,0,1.5,4.24,5.06,5.06,0,0,0,3.69,1.41,7,7,0,0,0,2.41-.39l.1,0v-.11l.4-3.55,0-.18h-3.08V141l.16,0,.35-3.17-.17,0V138h6.26v-.17l-.17,0L354.88,148l.16,0-.06-.16a19.43,19.43,0,0,1-4.85.58,8.32,8.32,0,0,1-6.79-2.82,9.58,9.58,0,0,1-1.95-6.06,12.2,12.2,0,0,1,2.54-7.54,10.58,10.58,0,0,1,8.66-3.79,13.14,13.14,0,0,1,4.52.72l.06-.16H357l-.39,3.7h.17l.05-.15-.05.15.16,0,.39-3.7,0-.13-.12,0a13.44,13.44,0,0,0-4.64-.74,10.85,10.85,0,0,0-8.92,3.92,12.49,12.49,0,0,0-2.61,7.74,9.84,9.84,0,0,0,2,6.27,8.64,8.64,0,0,0,7,2.94,19.35,19.35,0,0,0,5-.6l.09,0,0-.1,1.13-10.22,0-.18h-6.59v.14l-.35,3.17v.19h3.07V141l-.16,0-.39,3.55.16,0-.05-.16a6.73,6.73,0,0,1-2.31.38,4.73,4.73,0,0,1-3.45-1.31,5.48,5.48,0,0,1-1.41-4c0-4.5,3.18-7.49,7.73-7.5a12.26,12.26,0,0,1,4.13.73l.2.07,0-.21-.16,0"/><polygon class="cls-1" points="373 148.34 369.64 148.34 370.56 140.18 362.51 140.18 361.61 148.34 358.25 148.34 360.48 128.32 363.83 128.32 362.95 136.25 370.98 136.25 371.87 128.32 375.21 128.32 373 148.34"/><polyline class="cls-1" points="373 148.34 373 148.17 369.64 148.17 369.64 148.34 369.81 148.36 370.73 140.2 370.75 140.01 370.56 140.01 362.51 140.01 362.36 140.01 362.35 140.16 361.45 148.32 361.61 148.34 361.61 148.17 358.25 148.17 358.25 148.34 358.42 148.36 360.64 128.34 360.48 128.32 360.48 128.49 363.83 128.49 363.83 128.32 363.67 128.31 362.79 136.23 362.77 136.41 362.95 136.41 370.98 136.41 371.13 136.41 371.15 136.27 372.03 128.34 371.87 128.32 371.87 128.49 375.21 128.49 375.21 128.32 375.05 128.31 372.83 148.32 373 148.34 373 148.17 373 148.34 373.16 148.36 375.38 128.34 375.4 128.16 375.21 128.16 371.87 128.16 371.72 128.16 371.7 128.31 370.82 136.23 370.98 136.25 370.98 136.08 362.95 136.08 362.95 136.25 363.12 136.27 364 128.34 364.02 128.16 363.83 128.16 360.48 128.16 360.33 128.16 360.31 128.31 358.09 148.32 358.07 148.51 358.25 148.51 361.61 148.51 361.76 148.51 361.78 148.36 362.68 140.2 362.51 140.18 362.51 140.34 370.56 140.34 370.56 140.18 370.4 140.16 369.48 148.32 369.46 148.51 369.64 148.51 373 148.51 373.14 148.51 373.16 148.36 373 148.34"/><polygon class="cls-1" points="390.6 131.67 385.47 131.67 383.62 148.34 380.26 148.34 382.11 131.67 377.11 131.67 377.48 128.32 390.98 128.32 390.6 131.67"/><polyline class="cls-1" points="390.6 131.67 390.6 131.5 385.47 131.5 385.32 131.5 385.3 131.65 383.45 148.32 383.62 148.34 383.62 148.17 380.26 148.17 380.26 148.34 380.43 148.36 382.28 131.69 382.3 131.5 382.11 131.5 377.11 131.5 377.11 131.67 377.28 131.69 377.64 128.34 377.48 128.32 377.48 128.49 390.98 128.49 390.98 128.32 390.81 128.31 390.44 131.65 390.6 131.67 390.6 131.5 390.6 131.67 390.77 131.69 391.14 128.34 391.16 128.16 390.98 128.16 377.48 128.16 377.33 128.16 377.31 128.31 376.95 131.65 376.93 131.84 377.11 131.84 382.11 131.84 382.11 131.67 381.95 131.65 380.1 148.32 380.08 148.51 380.26 148.51 383.62 148.51 383.76 148.51 383.78 148.36 385.63 131.69 385.47 131.67 385.47 131.84 390.6 131.84 390.75 131.84 390.77 131.69 390.6 131.67"/><path class="cls-1" d="M394.17,146.11a2,2,0,1,1-1.95-2.47,2.27,2.27,0,0,1,1.95,2.47m-2.45-4,.39-8.92c.09-2.2.37-3.85.88-4.5a1.49,1.49,0,0,1,1.18-.61c.92,0,1.48.82,1.48,2.14a22,22,0,0,1-.42,3.4l-1.66,8.49Z"/><path class="cls-1" d="M394.17,146.11H394a2.67,2.67,0,0,1-.54,1.64,1.49,1.49,0,0,1-2.48,0,2.8,2.8,0,0,1,0-3.28,1.49,1.49,0,0,1,2.48,0,2.67,2.67,0,0,1,.54,1.64h.33a2.16,2.16,0,1,0-2.11,2.63,2.43,2.43,0,0,0,2.11-2.63h-.16m-2.45-4h.16l.39-8.92c.09-2.19.39-3.83.85-4.4h0a1.3,1.3,0,0,1,1.05-.55,1.09,1.09,0,0,1,.95.5,2.59,2.59,0,0,1,.36,1.47,22.91,22.91,0,0,1-.41,3.37l-1.67,8.49.17,0v-.17h-1.85v.17h0v.16h2l0-.13,1.67-8.48a23.47,23.47,0,0,0,.41-3.44,2.94,2.94,0,0,0-.42-1.66,1.41,1.41,0,0,0-1.22-.64,1.61,1.61,0,0,0-1.31.67h0c-.56.73-.82,2.38-.92,4.59l-.39,8.92v.17h.18v-.16"/><path class="cls-2" d="M405,52.75a4.84,4.84,0,0,1,2.3.6,4.37,4.37,0,0,1,1.75,1.74,4.67,4.67,0,0,1,0,4.67,4.32,4.32,0,0,1-1.73,1.74,4.69,4.69,0,0,1-4.66,0A4.35,4.35,0,0,1,401,59.76a4.67,4.67,0,0,1,0-4.67,4.4,4.4,0,0,1,1.76-1.74A4.79,4.79,0,0,1,405,52.75Zm0,.77a3.94,3.94,0,0,0-1.92.51,3.54,3.54,0,0,0-1.47,1.45,4,4,0,0,0-.53,2,4,4,0,0,0,.52,1.94,3.74,3.74,0,0,0,1.45,1.45,3.9,3.9,0,0,0,3.89,0,3.61,3.61,0,0,0,1.45-1.45,3.9,3.9,0,0,0,.52-1.94,4,4,0,0,0-.53-2A3.58,3.58,0,0,0,406.94,54,4,4,0,0,0,405,53.52ZM403,60V55h1.75a4.12,4.12,0,0,1,1.3.14,1.2,1.2,0,0,1,.64.49,1.28,1.28,0,0,1,.24.74,1.35,1.35,0,0,1-.4,1,1.58,1.58,0,0,1-1.07.46,1.59,1.59,0,0,1,.43.27,5.65,5.65,0,0,1,.75,1l.62,1h-1l-.45-.79a3.86,3.86,0,0,0-.86-1.17,1.1,1.1,0,0,0-.66-.18h-.48V60Zm.82-2.84h1a1.7,1.7,0,0,0,1-.21.7.7,0,0,0,.26-.56.64.64,0,0,0-.13-.4.67.67,0,0,0-.35-.26,2.6,2.6,0,0,0-.84-.09h-1Z"/></g></g></svg>