<svg width="396" height="75" viewBox="0 0 396 75" fill="none" xmlns="http://www.w3.org/2000/svg">
<path fill-rule="evenodd" clip-rule="evenodd" d="M9.74782 11.2368C10.7433 10.6475 11.7525 10.1953 12.6749 10.0354C13.5745 9.88012 14.3919 10.0126 15.0267 10.5744C15.3646 10.8759 15.6523 11.2962 15.8806 11.8626C15.9811 12.1184 16.0724 12.4016 16.1454 12.7214C16.2139 13.0137 16.2642 13.3335 16.2961 13.676C16.3738 14.512 16.4057 16.2706 16.4194 18.3673C16.4331 20.5416 16.4194 23.0722 16.3966 25.3059C17.8853 25.2465 19.3739 25.2237 20.8672 25.2191L20.8535 16.1838L20.8991 15.7956C21.1823 13.306 21.5841 9.74765 25.2327 9.65173C27.4612 9.59234 27.7032 9.65173 27.7032 9.65173L27.7215 9.66086H27.7397C27.7397 9.66086 28.8311 9.7842 29.5572 10.3643C29.58 10.3872 29.6028 10.41 29.6257 10.4328C29.6485 10.4557 29.6759 10.4739 29.7033 10.4968C29.8038 10.5699 29.9179 10.6247 30.0458 10.6658C30.1691 10.7023 30.3015 10.7252 30.4431 10.7252L32.2103 10.7343C32.5163 10.7343 32.7994 10.6384 33.0003 10.4831C33.2012 10.3278 33.3291 10.1085 33.3337 9.86642L33.3656 6.44963C33.3656 6.20753 33.2423 5.98827 33.0414 5.82839C32.8405 5.66852 32.5619 5.56802 32.256 5.56802L30.4887 5.55889C30.3289 5.55889 30.1782 5.58173 30.0412 5.63197C29.9042 5.67765 29.7855 5.7416 29.685 5.82383C28.6941 6.13901 27.3379 6.3537 26.0364 6.32629C24.9587 6.30346 23.9176 6.11617 23.1413 5.68222C22.9632 5.58173 22.776 5.50864 22.5796 5.46296C22.3832 5.41728 22.1778 5.39444 21.9586 5.39901L16.7619 5.49494C16.3738 5.50407 16.0085 5.54062 15.6614 5.6137C15.3098 5.68679 14.9719 5.79185 14.6294 5.93802L14.465 6.00654L14.36 6.04765H14.2184L14.3371 6.05679C11.8164 7.12111 6.70654 9.35938 4.24065 15.5398L4.03516 16.0605L4.43701 15.6174C5.3503 14.6125 7.50111 12.5752 9.74325 11.2414L9.74782 11.2368Z" fill="white"/>
<path d="M59.7734 41.2004L73.1578 31.7311V66.1914H59.7734V41.205V41.2004ZM86.0992 31.7311C91.0583 31.7311 94.9992 32.6356 97.9218 34.4353C100.844 36.2396 102.31 38.9438 102.31 42.5525C102.31 45.6358 100.858 48.1984 97.9583 50.2494C95.0586 52.3004 91.2273 53.3236 86.469 53.3236C84.3867 53.3236 83.3456 53.182 83.3456 52.9034L83.6424 52.6932L84.4598 52.4329L76.5004 48.1801L82.5236 48.1299C84.5055 48.1299 86.017 47.7599 87.0581 47.0153C88.0993 46.2753 88.6199 45.3389 88.6199 44.2061C88.6199 43.0732 88.1586 42.1916 87.2453 41.5567C86.3275 40.9217 84.752 40.602 82.5236 40.602H73.1532V31.7266H86.0946L86.0992 31.7311ZM101.94 66.438L76.062 48.1253H91.9031L101.945 55.3883V66.438H101.94Z" fill="white"/>
<path d="M92.6985 22.1811V7.59125H81.602V13.3833L71.8754 5.58594L43.1797 29.9603L103.316 30.618L92.7031 22.1857L92.6985 22.1811ZM71.058 27.4022H66.5235V23.3642H71.058V27.4022ZM71.058 22.5603H66.5235V18.5862H71.058V22.5603ZM76.5743 27.4022H72.0992V23.3642H76.5743V27.4022ZM76.5743 22.5603H72.0992V18.5862H76.5743V22.5603Z" fill="white"/>
<path d="M24.4657 51.6011L41.1424 66.5244H58.9608L34.7037 47.8965L43.0193 42.1227H28.8678L24.4657 45.6537V37.7741V31.178V15.3594H13.3691V31.178V37.7741V66.5244H24.4657V51.6011Z" fill="white"/>
<path d="M45.1977 40.5061H55.6002C56.5591 36.7787 58.162 34.4126 59.6278 33.0605C59.8653 32.8686 60.0982 32.6859 60.331 32.5215C61.2717 31.8682 62.1805 31.4434 62.9476 31.1328H41.7775L30.7129 40.5107H45.1977V40.5061Z" fill="white"/>
<path d="M41.7364 34.3035L41.7775 31.1562H72.2221L57.8697 40.9361L30.7129 40.5342" fill="white"/>
<path d="M120.955 21.0446L118.242 23.6912V30.3677H112.379V5.88281H118.242V16.2434L120.37 13.4637L126.552 5.88281H133.838L124.903 16.8684L134.131 30.3544H127.177L120.955 21.018V21.0446Z" fill="white"/>
<path d="M158.568 20.1978C158.568 21.7006 158.302 23.0838 157.797 24.3739C157.278 25.6507 156.547 26.7679 155.616 27.6989C154.672 28.6431 153.556 29.3746 152.239 29.9066C150.923 30.4386 149.487 30.7046 147.905 30.7046C146.323 30.7046 144.807 30.4386 143.491 29.9066C142.175 29.3746 141.044 28.6431 140.114 27.6989C139.183 26.7546 138.452 25.6507 137.933 24.3739C137.428 23.0971 137.162 21.7006 137.162 20.1978V16.1014C137.162 14.5985 137.415 13.2154 137.92 11.9253C138.425 10.6352 139.143 9.51801 140.087 8.57373C141.031 7.62944 142.148 6.88466 143.464 6.35266C144.767 5.82067 146.243 5.55469 147.865 5.55469C149.487 5.55469 150.897 5.82067 152.199 6.35266C153.502 6.88466 154.633 7.62944 155.577 8.57373C156.521 9.51801 157.252 10.6352 157.784 11.9253C158.315 13.2154 158.568 14.6118 158.568 16.1014V20.1978ZM152.705 16.0748C152.705 15.2369 152.598 14.4522 152.386 13.7474C152.173 13.0292 151.867 12.4041 151.455 11.8721C151.043 11.3401 150.538 10.9278 149.926 10.6219C149.328 10.316 148.636 10.1697 147.852 10.1697C147.014 10.1697 146.296 10.316 145.685 10.6219C145.086 10.9278 144.581 11.3401 144.196 11.8721C143.81 12.4041 143.517 13.0292 143.318 13.7474C143.132 14.4655 143.039 15.2502 143.039 16.0748V20.1978C143.039 21.0224 143.132 21.7937 143.318 22.5252C143.504 23.2567 143.797 23.8685 144.196 24.4005C144.594 24.9325 145.1 25.3581 145.711 25.6773C146.323 25.9965 147.041 26.1561 147.892 26.1561C148.663 26.1561 149.354 25.9965 149.953 25.6906C150.551 25.3847 151.056 24.9591 151.468 24.4138C151.88 23.8685 152.186 23.2434 152.399 22.5252C152.612 21.807 152.718 21.0357 152.718 20.1978V16.0748H152.705Z" fill="white"/>
<path d="M173.752 21.816H169.736V30.3677H163.873V5.88281H173.938C175.374 5.88281 176.703 6.0424 177.913 6.34829C179.123 6.65419 180.16 7.11969 181.024 7.73148C181.889 8.34328 182.567 9.11466 183.045 10.0323C183.524 10.95 183.763 12.0273 183.763 13.2642C183.763 14.2351 183.657 15.0863 183.431 15.8178C183.205 16.5493 182.886 17.2009 182.487 17.7462C182.075 18.3048 181.596 18.7836 181.011 19.1826C180.439 19.5949 179.801 19.9407 179.123 20.2599L184.734 30.1416V30.3677H178.458L173.778 21.816H173.752ZM169.736 17.1344H173.938C175.174 17.1211 176.145 16.8418 176.85 16.3099C177.554 15.7646 177.913 14.9666 177.927 13.8893C177.927 12.812 177.568 12.0007 176.85 11.4687C176.132 10.9234 175.161 10.6574 173.925 10.6574H169.723V17.1477L169.736 17.1344Z" fill="white"/>
<path d="M208.546 30.3677H202.749L195.729 15.6981L195.756 30.3677H189.959V5.88281H195.756L202.749 20.5791L202.723 5.88281H208.546V30.3677Z" fill="white"/>
<path d="M233.195 19.9939H221.654V25.7261H234.99V30.3677H215.791V5.88281H235.123V10.5643H221.654V15.2991H233.195V19.9806V19.9939Z" fill="white"/>
<path d="M251.213 21.816H247.197V30.3677H241.334V5.88281H251.399C252.835 5.88281 254.164 6.0424 255.374 6.34829C256.584 6.65419 257.621 7.11969 258.485 7.73148C259.35 8.34328 260.028 9.11466 260.506 10.0323C260.985 10.95 261.224 12.0273 261.224 13.2642C261.224 14.2351 261.118 15.0863 260.892 15.8178C260.666 16.5493 260.347 17.2009 259.948 17.7462C259.536 18.3048 259.057 18.7836 258.472 19.1826C257.9 19.5949 257.262 19.9407 256.584 20.2599L262.195 30.1416V30.3677H255.919L251.239 21.816H251.213ZM247.197 17.1344H251.399C252.635 17.1211 253.606 16.8418 254.311 16.3099C255.015 15.7646 255.374 14.9666 255.387 13.8893C255.387 12.812 255.029 12.0007 254.311 11.4687C253.593 10.9234 252.622 10.6574 251.386 10.6574H247.184V17.1477L247.197 17.1344Z" fill="white"/>
<path d="M281.924 23.7332C281.924 23.2943 281.818 22.9219 281.605 22.6027C281.392 22.2835 281.06 21.9909 280.635 21.7249C280.196 21.4722 279.664 21.2328 279.012 21.02C278.374 20.8072 277.616 20.6078 276.765 20.4083C275.303 20.0359 274.013 19.6502 272.883 19.2645C271.753 18.8788 270.809 18.4 270.038 17.8414C269.267 17.2828 268.682 16.5912 268.296 15.7666C267.911 14.942 267.711 13.9312 267.711 12.7077C267.711 11.5639 267.964 10.5398 268.456 9.64872C268.948 8.75763 269.639 8.01284 270.503 7.40105C271.367 6.78926 272.391 6.32375 273.561 6.01786C274.731 5.71196 275.994 5.53906 277.337 5.53906C278.68 5.53906 280.049 5.68537 281.259 5.96467C282.483 6.24396 283.533 6.69616 284.437 7.29465C285.341 7.90644 286.046 8.70442 286.564 9.6753C287.083 10.6595 287.362 11.8432 287.389 13.2263H281.525C281.525 12.7476 281.419 12.3087 281.206 11.8964C280.993 11.4841 280.701 11.125 280.329 10.8324C279.956 10.5398 279.504 10.3137 278.999 10.1408C278.494 9.96791 277.949 9.8881 277.364 9.8881C276.699 9.8881 276.127 9.95461 275.622 10.1009C275.117 10.2472 274.691 10.4334 274.346 10.6728C274 10.9122 273.734 11.1915 273.548 11.5107C273.362 11.8299 273.269 12.1491 273.269 12.4816C273.269 12.9205 273.348 13.2796 273.521 13.5854C273.694 13.8913 273.96 14.1573 274.346 14.3834C274.731 14.6095 275.236 14.8223 275.848 15.0218C276.46 15.2213 277.218 15.4208 278.122 15.6336C279.558 15.9661 280.861 16.3518 282.031 16.7641C283.201 17.1764 284.184 17.6818 284.995 18.2803C285.807 18.8788 286.431 19.597 286.87 20.4614C287.309 21.3126 287.522 22.3633 287.522 23.5869C287.522 24.8105 287.269 25.8346 286.75 26.7257C286.232 27.6167 285.527 28.3482 284.623 28.9467C283.719 29.5452 282.642 29.9708 281.406 30.2634C280.169 30.556 278.813 30.689 277.364 30.689C276.513 30.689 275.662 30.6358 274.811 30.5294C273.96 30.423 273.149 30.2501 272.378 30.0107C271.607 29.7713 270.875 29.4388 270.197 29.0398C269.519 28.6408 268.934 28.1354 268.442 27.5502C267.95 26.965 267.552 26.2735 267.272 25.4755C266.993 24.6775 266.834 23.7731 266.82 22.7357H272.684C272.684 23.4406 272.817 24.0258 273.069 24.4913C273.322 24.9568 273.681 25.3292 274.133 25.6218C274.585 25.9011 275.104 26.1006 275.702 26.2336C276.3 26.3666 276.952 26.4198 277.63 26.4198C278.308 26.4198 278.973 26.34 279.504 26.1937C280.036 26.0474 280.475 25.8346 280.834 25.5819C281.193 25.3292 281.459 25.0366 281.645 24.7174C281.831 24.3982 281.924 24.0657 281.924 23.7332Z" fill="white"/>
<path d="M314.645 10.58H306.016V30.3701H300.113V10.58H291.67V5.89844H314.658V10.58H314.645Z" fill="white"/>
<path d="M339.308 20.1978C339.308 21.7006 339.042 23.0838 338.537 24.3739C338.019 25.6507 337.287 26.7679 336.357 27.6989C335.413 28.6431 334.296 29.3746 332.98 29.9066C331.663 30.4386 330.227 30.7046 328.645 30.7046C327.063 30.7046 325.547 30.4386 324.231 29.9066C322.915 29.3746 321.785 28.6431 320.854 27.6989C319.923 26.7546 319.192 25.6507 318.673 24.3739C318.168 23.0971 317.902 21.7006 317.902 20.1978V16.1014C317.902 14.5985 318.155 13.2154 318.66 11.9253C319.165 10.6352 319.883 9.51801 320.827 8.57373C321.771 7.62944 322.888 6.88466 324.204 6.35266C325.507 5.82067 326.983 5.55469 328.605 5.55469C330.227 5.55469 331.637 5.82067 332.94 6.35266C334.243 6.88466 335.373 7.62944 336.317 8.57373C337.261 9.51801 337.992 10.6352 338.524 11.9253C339.056 13.2154 339.308 14.6118 339.308 16.1014V20.1978ZM333.445 16.0748C333.445 15.2369 333.339 14.4522 333.126 13.7474C332.913 13.0292 332.607 12.4041 332.195 11.8721C331.783 11.3401 331.278 10.9278 330.666 10.6219C330.068 10.316 329.376 10.1697 328.592 10.1697C327.754 10.1697 327.036 10.316 326.425 10.6219C325.827 10.9278 325.321 11.3401 324.936 11.8721C324.55 12.4041 324.258 13.0292 324.058 13.7474C323.872 14.4655 323.779 15.2502 323.779 16.0748V20.1978C323.779 21.0224 323.872 21.7937 324.058 22.5252C324.244 23.2567 324.537 23.8685 324.936 24.4005C325.335 24.9325 325.84 25.3581 326.451 25.6773C327.063 25.9965 327.781 26.1561 328.632 26.1561C329.403 26.1561 330.094 25.9965 330.693 25.6906C331.291 25.3847 331.796 24.9591 332.208 24.4138C332.621 23.8685 332.926 23.2434 333.139 22.5252C333.352 21.807 333.458 21.0357 333.458 20.1978V16.0748H333.445Z" fill="white"/>
<path d="M363.466 30.3677H357.669L350.649 15.6981L350.676 30.3677H344.879V5.88281H350.676L357.669 20.5791L357.643 5.88281H363.466V30.3677Z" fill="white"/>
<path d="M388.119 19.9939H376.578V25.7261H389.914V30.3677H370.715V5.88281H390.047V10.5643H376.578V15.2991H388.119V19.9806V19.9939Z" fill="white"/>
<path d="M122.258 57.4058H118.242V65.9576H112.379V41.4727H122.444C123.88 41.4727 125.209 41.6323 126.419 41.9382C127.629 42.2441 128.666 42.7095 129.53 43.3213C130.395 43.9331 131.073 44.7045 131.551 45.6222C132.03 46.5399 132.269 47.6172 132.269 48.8541C132.269 49.8249 132.163 50.6761 131.937 51.4076C131.711 52.1391 131.392 52.7908 130.993 53.3361C130.581 53.8947 130.102 54.3735 129.517 54.7725C128.945 55.1848 128.307 55.5305 127.629 55.8497L133.24 65.7315V65.9576H126.964L122.284 57.4058H122.258ZM118.242 52.7243H122.444C123.68 52.711 124.651 52.4317 125.355 51.8997C126.06 51.3544 126.419 50.5564 126.432 49.4791C126.432 48.4019 126.073 47.5906 125.355 47.0586C124.637 46.5133 123.667 46.2473 122.43 46.2473H118.229V52.7376L118.242 52.7243Z" fill="white"/>
<path d="M158.715 55.7837C158.715 57.2866 158.449 58.6698 157.943 59.9598C157.425 61.2366 156.694 62.3538 155.763 63.2848C154.819 64.2291 153.702 64.9606 152.386 65.4926C151.07 66.0246 149.634 66.2906 148.051 66.2906C146.469 66.2906 144.954 66.0246 143.637 65.4926C142.321 64.9606 141.191 64.2291 140.26 63.2848C139.33 62.3405 138.598 61.2366 138.08 59.9598C137.575 58.6831 137.309 57.2866 137.309 55.7837V51.6874C137.309 50.1845 137.561 48.8013 138.066 47.5112C138.572 46.2211 139.29 45.104 140.234 44.1597C141.178 43.2154 142.294 42.4706 143.611 41.9386C144.914 41.4066 146.39 41.1406 148.012 41.1406C149.634 41.1406 151.043 41.4066 152.346 41.9386C153.649 42.4706 154.779 43.2154 155.723 44.1597C156.667 45.104 157.398 46.2211 157.93 47.5112C158.462 48.8013 158.715 50.1978 158.715 51.6874V55.7837ZM152.851 51.6608C152.851 50.8229 152.745 50.0382 152.532 49.3333C152.319 48.6151 152.014 47.99 151.601 47.458C151.189 46.926 150.684 46.5137 150.072 46.2078C149.474 45.902 148.783 45.7557 147.998 45.7557C147.161 45.7557 146.443 45.902 145.831 46.2078C145.233 46.5137 144.728 46.926 144.342 47.458C143.956 47.99 143.664 48.6151 143.464 49.3333C143.278 50.0515 143.185 50.8362 143.185 51.6608V55.7837C143.185 56.6083 143.278 57.3797 143.464 58.1112C143.651 58.8427 143.943 59.4545 144.342 59.9864C144.741 60.5184 145.246 60.944 145.858 61.2632C146.469 61.5824 147.187 61.742 148.038 61.742C148.809 61.742 149.501 61.5824 150.099 61.2765C150.697 60.9706 151.203 60.545 151.615 59.9998C152.027 59.4545 152.333 58.8294 152.545 58.1112C152.758 57.393 152.864 56.6216 152.864 55.7837V51.6608H152.851Z" fill="white"/>
<path d="M184.535 55.7837C184.535 57.2866 184.269 58.6698 183.764 59.9598C183.245 61.2366 182.514 62.3538 181.583 63.2848C180.639 64.2291 179.522 64.9606 178.206 65.4926C176.89 66.0246 175.454 66.2906 173.872 66.2906C172.29 66.2906 170.774 66.0246 169.458 65.4926C168.141 64.9606 167.011 64.2291 166.081 63.2848C165.15 62.3405 164.419 61.2366 163.9 59.9598C163.395 58.6831 163.129 57.2866 163.129 55.7837V51.6874C163.129 50.1845 163.382 48.8013 163.887 47.5112C164.392 46.2211 165.11 45.104 166.054 44.1597C166.998 43.2154 168.115 42.4706 169.431 41.9386C170.734 41.4066 172.21 41.1406 173.832 41.1406C175.454 41.1406 176.863 41.4066 178.166 41.9386C179.469 42.4706 180.599 43.2154 181.543 44.1597C182.487 45.104 183.219 46.2211 183.75 47.5112C184.282 48.8013 184.535 50.1978 184.535 51.6874V55.7837ZM178.672 51.6608C178.672 50.8229 178.565 50.0382 178.352 49.3333C178.14 48.6151 177.834 47.99 177.422 47.458C177.01 46.926 176.504 46.5137 175.893 46.2078C175.294 45.902 174.603 45.7557 173.819 45.7557C172.981 45.7557 172.263 45.902 171.651 46.2078C171.053 46.5137 170.548 46.926 170.162 47.458C169.777 47.99 169.484 48.6151 169.285 49.3333C169.099 50.0515 169.006 50.8362 169.006 51.6608V55.7837C169.006 56.6083 169.099 57.3797 169.285 58.1112C169.471 58.8427 169.763 59.4545 170.162 59.9864C170.561 60.5184 171.066 60.944 171.678 61.2632C172.29 61.5824 173.008 61.742 173.858 61.742C174.63 61.742 175.321 61.5824 175.919 61.2765C176.518 60.9706 177.023 60.545 177.435 59.9998C177.847 59.4545 178.153 58.8294 178.366 58.1112C178.578 57.393 178.685 56.6216 178.685 55.7837V51.6608H178.672Z" fill="white"/>
<path d="M207.948 56.2636H196.168V65.9459H190.291V41.4609H209.304V46.1425H196.168V51.5688H207.948V56.2503V56.2636Z" fill="white"/>
<path d="M216.816 41.4844H234.274V46.2324H228.41V61.1947H234.274V65.9427H216.816V61.1947H222.534V46.2324H216.816V41.4844Z" fill="white"/>
<path d="M260.333 65.9576H254.537L247.516 51.2879L247.543 65.9576H241.746V41.4727H247.543L254.537 56.1689L254.51 41.4727H260.333V65.9576Z" fill="white"/>
<path d="M287.615 62.8585C287.242 63.2974 286.711 63.7097 286.046 64.1219C285.381 64.5342 284.596 64.8933 283.692 65.2125C282.788 65.5317 281.778 65.7977 280.674 65.9839C279.571 66.1834 278.387 66.2765 277.124 66.2765C275.449 66.2765 273.933 66.0238 272.591 65.5184C271.248 65.013 270.104 64.2948 269.16 63.3772C268.216 62.4462 267.485 61.3423 266.966 60.0522C266.448 58.7621 266.195 57.339 266.195 55.783V51.6467C266.195 50.0906 266.488 48.6676 267.06 47.3642C267.631 46.0608 268.402 44.9569 269.386 44.0393C270.357 43.1216 271.5 42.4034 272.817 41.8847C274.133 41.366 275.529 41.1133 277.031 41.1133C278.773 41.1133 280.289 41.3128 281.592 41.7251C282.895 42.1374 283.985 42.696 284.862 43.4275C285.74 44.1589 286.405 45.0367 286.843 46.0475C287.296 47.0716 287.522 48.2021 287.535 49.4257H281.858C281.844 48.7341 281.725 48.1622 281.485 47.6967C281.259 47.2312 280.927 46.8588 280.515 46.5795C280.103 46.3002 279.611 46.1007 279.039 45.9677C278.467 45.8347 277.842 45.7815 277.164 45.7815C276.486 45.7815 275.821 45.9278 275.21 46.2071C274.598 46.4864 274.053 46.8854 273.588 47.3908C273.122 47.8962 272.75 48.5213 272.458 49.2262C272.178 49.9444 272.032 50.7291 272.032 51.5802V55.7564C272.032 56.581 272.138 57.3523 272.364 58.0705C272.577 58.7887 272.91 59.4005 273.335 59.9325C273.761 60.4645 274.319 60.8768 275.01 61.1694C275.688 61.4753 276.486 61.6216 277.417 61.6216C277.895 61.6216 278.361 61.595 278.813 61.5551C279.265 61.5152 279.69 61.4487 280.063 61.3822C280.435 61.3024 280.781 61.2093 281.073 61.1029C281.366 60.9965 281.592 60.8768 281.765 60.7571L281.791 56.8337H277.191V52.5245H287.628V62.8186L287.615 62.8585Z" fill="white"/>
</svg>
